<?xml version="1.0" encoding="UTF-8" standalone="no"?>
<svg
   xmlns:dc="http://purl.org/dc/elements/1.1/"
   xmlns:cc="http://creativecommons.org/ns#"
   xmlns:rdf="http://www.w3.org/1999/02/22-rdf-syntax-ns#"
   xmlns:svg="http://www.w3.org/2000/svg"
   xmlns="http://www.w3.org/2000/svg"
   xmlns:sodipodi="http://sodipodi.sourceforge.net/DTD/sodipodi-0.dtd"
   xmlns:inkscape="http://www.inkscape.org/namespaces/inkscape"
   width="64px"
   height="64px"
   viewBox="0 0 64 64"
   version="1.1"
   id="svg11"
   sodipodi:docname="home.svg"
   inkscape:version="1.0 (4035a4fb49, 2020-05-01)">
  <metadata
     id="metadata17">
    <rdf:RDF>
      <cc:Work
         rdf:about="">
        <dc:format>image/svg+xml</dc:format>
        <dc:type
           rdf:resource="http://purl.org/dc/dcmitype/StillImage" />
      </cc:Work>
    </rdf:RDF>
  </metadata>
  <defs
     id="defs15" />
  <sodipodi:namedview
     inkscape:document-rotation="0"
     pagecolor="#ffffff"
     bordercolor="#666666"
     borderopacity="1"
     objecttolerance="10"
     gridtolerance="10"
     guidetolerance="10"
     inkscape:pageopacity="0"
     inkscape:pageshadow="2"
     inkscape:window-width="1920"
     inkscape:window-height="1048"
     id="namedview13"
     showgrid="false"
     inkscape:zoom="9.269728"
     inkscape:cx="36.642488"
     inkscape:cy="30.964718"
     inkscape:window-x="0"
     inkscape:window-y="32"
     inkscape:window-maximized="1"
     inkscape:current-layer="surface1" />
  <g
     id="surface1">
    <path
       style="fill:#3847ab;fill-opacity:1;fill-rule:nonzero;stroke:none;stroke-width:2.20747"
       d="M 32.000001,8.6360813 5.7172082,31.995687 H 14.47814 v 20.445047 c 0,1.621116 1.302067,2.923185 2.923185,2.923185 h 29.197351 c 1.621117,0 2.923185,-1.302069 2.923185,-2.923185 V 31.995687 h 8.760931 l -8.760931,-7.786534 v -6.812142 h -5.837745 v 1.621117 z m 0,0"
       id="path8" />
    <path
       style="fill:#f5f5f5;fill-opacity:1;fill-rule:nonzero;stroke:none;stroke-width:0.641267"
       d="m 33.221258,35.88483 h 13.383937 c 0.368849,0 0.669197,0.271508 0.669197,0.604938 v 4.234565 c 0,0.333431 -0.300348,0.604938 -0.669197,0.604938 H 33.221258 c -0.368848,0 -0.669197,-0.271507 -0.669197,-0.604938 v -4.234565 c 0,-0.33343 0.300349,-0.604938 0.669197,-0.604938 z m 0,0"
       id="path4" />
    <path
       style="fill:#5c68bf;fill-opacity:1;fill-rule:nonzero;stroke:none;stroke-width:0.478841"
       d="M 30.214414,36.835029 V 54.41372 c 0,0.525602 -0.424597,0.950199 -0.950199,0.950199 h -5.701197 c -0.525603,0 -0.9502,-0.424597 -0.9502,-0.950199 V 36.835029 c 0,-0.525602 0.424597,-0.950199 0.9502,-0.950199 h 5.701197 c 0.525602,0 0.950199,0.424597 0.950199,0.950199 z m 0,0"
       id="path2" />
  </g>
</svg>
