%TF.GenerationSoftware,KiCad,Pcbnew,(6.0.2)*%
%TF.CreationDate,2022-03-14T21:43:21-03:00*%
%TF.ProjectId,9_axis_double,395f6178-6973-45f6-946f-75626c652e6b,rev?*%
%TF.SameCoordinates,Original*%
%TF.FileFunction,Legend,Bot*%
%TF.FilePolarity,Positive*%
%FSLAX46Y46*%
G04 Gerber Fmt 4.6, Leading zero omitted, Abs format (unit mm)*
G04 Created by KiCad (PCBNEW (6.0.2)) date 2022-03-14 21:43:21*
%MOMM*%
%LPD*%
G01*
G04 APERTURE LIST*
%ADD10C,0.150000*%
%ADD11C,0.120000*%
G04 APERTURE END LIST*
D10*
X82909523Y-89328571D02*
X83242857Y-89328571D01*
X83242857Y-89852380D02*
X83242857Y-88852380D01*
X82766666Y-88852380D01*
X81957142Y-89185714D02*
X81957142Y-89852380D01*
X82385714Y-89185714D02*
X82385714Y-89709523D01*
X82338095Y-89804761D01*
X82242857Y-89852380D01*
X82100000Y-89852380D01*
X82004761Y-89804761D01*
X81957142Y-89757142D01*
X81338095Y-89852380D02*
X81433333Y-89804761D01*
X81480952Y-89709523D01*
X81480952Y-88852380D01*
X80814285Y-89852380D02*
X80909523Y-89804761D01*
X80957142Y-89709523D01*
X80957142Y-88852380D01*
X80480952Y-89566666D02*
X80004761Y-89566666D01*
X80576190Y-89852380D02*
X80242857Y-88852380D01*
X79909523Y-89852380D01*
X79671428Y-89852380D02*
X79147619Y-89185714D01*
X79671428Y-89185714D02*
X79147619Y-89852380D01*
X78766666Y-89852380D02*
X78766666Y-89185714D01*
X78766666Y-88852380D02*
X78814285Y-88900000D01*
X78766666Y-88947619D01*
X78719047Y-88900000D01*
X78766666Y-88852380D01*
X78766666Y-88947619D01*
X78338095Y-89804761D02*
X78242857Y-89852380D01*
X78052380Y-89852380D01*
X77957142Y-89804761D01*
X77909523Y-89709523D01*
X77909523Y-89661904D01*
X77957142Y-89566666D01*
X78052380Y-89519047D01*
X78195238Y-89519047D01*
X78290476Y-89471428D01*
X78338095Y-89376190D01*
X78338095Y-89328571D01*
X78290476Y-89233333D01*
X78195238Y-89185714D01*
X78052380Y-89185714D01*
X77957142Y-89233333D01*
%TO.C,U2*%
X78661904Y-70952380D02*
X78661904Y-71761904D01*
X78614285Y-71857142D01*
X78566666Y-71904761D01*
X78471428Y-71952380D01*
X78280952Y-71952380D01*
X78185714Y-71904761D01*
X78138095Y-71857142D01*
X78090476Y-71761904D01*
X78090476Y-70952380D01*
X77661904Y-71047619D02*
X77614285Y-71000000D01*
X77519047Y-70952380D01*
X77280952Y-70952380D01*
X77185714Y-71000000D01*
X77138095Y-71047619D01*
X77090476Y-71142857D01*
X77090476Y-71238095D01*
X77138095Y-71380952D01*
X77709523Y-71952380D01*
X77090476Y-71952380D01*
%TO.C,U1*%
X81461904Y-64752380D02*
X81461904Y-65561904D01*
X81414285Y-65657142D01*
X81366666Y-65704761D01*
X81271428Y-65752380D01*
X81080952Y-65752380D01*
X80985714Y-65704761D01*
X80938095Y-65657142D01*
X80890476Y-65561904D01*
X80890476Y-64752380D01*
X79890476Y-65752380D02*
X80461904Y-65752380D01*
X80176190Y-65752380D02*
X80176190Y-64752380D01*
X80271428Y-64895238D01*
X80366666Y-64990476D01*
X80461904Y-65038095D01*
%TO.C,R11*%
X80442857Y-60552380D02*
X80776190Y-60076190D01*
X81014285Y-60552380D02*
X81014285Y-59552380D01*
X80633333Y-59552380D01*
X80538095Y-59600000D01*
X80490476Y-59647619D01*
X80442857Y-59742857D01*
X80442857Y-59885714D01*
X80490476Y-59980952D01*
X80538095Y-60028571D01*
X80633333Y-60076190D01*
X81014285Y-60076190D01*
X79490476Y-60552380D02*
X80061904Y-60552380D01*
X79776190Y-60552380D02*
X79776190Y-59552380D01*
X79871428Y-59695238D01*
X79966666Y-59790476D01*
X80061904Y-59838095D01*
X78538095Y-60552380D02*
X79109523Y-60552380D01*
X78823809Y-60552380D02*
X78823809Y-59552380D01*
X78919047Y-59695238D01*
X79014285Y-59790476D01*
X79109523Y-59838095D01*
%TO.C,R2*%
X87966666Y-60552380D02*
X88300000Y-60076190D01*
X88538095Y-60552380D02*
X88538095Y-59552380D01*
X88157142Y-59552380D01*
X88061904Y-59600000D01*
X88014285Y-59647619D01*
X87966666Y-59742857D01*
X87966666Y-59885714D01*
X88014285Y-59980952D01*
X88061904Y-60028571D01*
X88157142Y-60076190D01*
X88538095Y-60076190D01*
X87585714Y-59647619D02*
X87538095Y-59600000D01*
X87442857Y-59552380D01*
X87204761Y-59552380D01*
X87109523Y-59600000D01*
X87061904Y-59647619D01*
X87014285Y-59742857D01*
X87014285Y-59838095D01*
X87061904Y-59980952D01*
X87633333Y-60552380D01*
X87014285Y-60552380D01*
%TO.C,R1*%
X85666666Y-74567380D02*
X86000000Y-74091190D01*
X86238095Y-74567380D02*
X86238095Y-73567380D01*
X85857142Y-73567380D01*
X85761904Y-73615000D01*
X85714285Y-73662619D01*
X85666666Y-73757857D01*
X85666666Y-73900714D01*
X85714285Y-73995952D01*
X85761904Y-74043571D01*
X85857142Y-74091190D01*
X86238095Y-74091190D01*
X84714285Y-74567380D02*
X85285714Y-74567380D01*
X85000000Y-74567380D02*
X85000000Y-73567380D01*
X85095238Y-73710238D01*
X85190476Y-73805476D01*
X85285714Y-73853095D01*
%TO.C,C9*%
X88966666Y-78657142D02*
X89014285Y-78704761D01*
X89157142Y-78752380D01*
X89252380Y-78752380D01*
X89395238Y-78704761D01*
X89490476Y-78609523D01*
X89538095Y-78514285D01*
X89585714Y-78323809D01*
X89585714Y-78180952D01*
X89538095Y-77990476D01*
X89490476Y-77895238D01*
X89395238Y-77800000D01*
X89252380Y-77752380D01*
X89157142Y-77752380D01*
X89014285Y-77800000D01*
X88966666Y-77847619D01*
X88490476Y-78752380D02*
X88300000Y-78752380D01*
X88204761Y-78704761D01*
X88157142Y-78657142D01*
X88061904Y-78514285D01*
X88014285Y-78323809D01*
X88014285Y-77942857D01*
X88061904Y-77847619D01*
X88109523Y-77800000D01*
X88204761Y-77752380D01*
X88395238Y-77752380D01*
X88490476Y-77800000D01*
X88538095Y-77847619D01*
X88585714Y-77942857D01*
X88585714Y-78180952D01*
X88538095Y-78276190D01*
X88490476Y-78323809D01*
X88395238Y-78371428D01*
X88204761Y-78371428D01*
X88109523Y-78323809D01*
X88061904Y-78276190D01*
X88014285Y-78180952D01*
%TO.C,C4*%
X78066666Y-68907142D02*
X78114285Y-68954761D01*
X78257142Y-69002380D01*
X78352380Y-69002380D01*
X78495238Y-68954761D01*
X78590476Y-68859523D01*
X78638095Y-68764285D01*
X78685714Y-68573809D01*
X78685714Y-68430952D01*
X78638095Y-68240476D01*
X78590476Y-68145238D01*
X78495238Y-68050000D01*
X78352380Y-68002380D01*
X78257142Y-68002380D01*
X78114285Y-68050000D01*
X78066666Y-68097619D01*
X77209523Y-68335714D02*
X77209523Y-69002380D01*
X77447619Y-67954761D02*
X77685714Y-68669047D01*
X77066666Y-68669047D01*
%TO.C,C3*%
X84966666Y-69007142D02*
X85014285Y-69054761D01*
X85157142Y-69102380D01*
X85252380Y-69102380D01*
X85395238Y-69054761D01*
X85490476Y-68959523D01*
X85538095Y-68864285D01*
X85585714Y-68673809D01*
X85585714Y-68530952D01*
X85538095Y-68340476D01*
X85490476Y-68245238D01*
X85395238Y-68150000D01*
X85252380Y-68102380D01*
X85157142Y-68102380D01*
X85014285Y-68150000D01*
X84966666Y-68197619D01*
X84633333Y-68102380D02*
X84014285Y-68102380D01*
X84347619Y-68483333D01*
X84204761Y-68483333D01*
X84109523Y-68530952D01*
X84061904Y-68578571D01*
X84014285Y-68673809D01*
X84014285Y-68911904D01*
X84061904Y-69007142D01*
X84109523Y-69054761D01*
X84204761Y-69102380D01*
X84490476Y-69102380D01*
X84585714Y-69054761D01*
X84633333Y-69007142D01*
%TO.C,C2*%
X84966666Y-83707142D02*
X85014285Y-83754761D01*
X85157142Y-83802380D01*
X85252380Y-83802380D01*
X85395238Y-83754761D01*
X85490476Y-83659523D01*
X85538095Y-83564285D01*
X85585714Y-83373809D01*
X85585714Y-83230952D01*
X85538095Y-83040476D01*
X85490476Y-82945238D01*
X85395238Y-82850000D01*
X85252380Y-82802380D01*
X85157142Y-82802380D01*
X85014285Y-82850000D01*
X84966666Y-82897619D01*
X84585714Y-82897619D02*
X84538095Y-82850000D01*
X84442857Y-82802380D01*
X84204761Y-82802380D01*
X84109523Y-82850000D01*
X84061904Y-82897619D01*
X84014285Y-82992857D01*
X84014285Y-83088095D01*
X84061904Y-83230952D01*
X84633333Y-83802380D01*
X84014285Y-83802380D01*
%TO.C,C1*%
X78066666Y-83807142D02*
X78114285Y-83854761D01*
X78257142Y-83902380D01*
X78352380Y-83902380D01*
X78495238Y-83854761D01*
X78590476Y-83759523D01*
X78638095Y-83664285D01*
X78685714Y-83473809D01*
X78685714Y-83330952D01*
X78638095Y-83140476D01*
X78590476Y-83045238D01*
X78495238Y-82950000D01*
X78352380Y-82902380D01*
X78257142Y-82902380D01*
X78114285Y-82950000D01*
X78066666Y-82997619D01*
X77114285Y-83902380D02*
X77685714Y-83902380D01*
X77400000Y-83902380D02*
X77400000Y-82902380D01*
X77495238Y-83045238D01*
X77590476Y-83140476D01*
X77685714Y-83188095D01*
D11*
%TO.C,U2*%
X82000000Y-72590000D02*
X75990000Y-72590000D01*
X79750000Y-79410000D02*
X75990000Y-79410000D01*
X75990000Y-79410000D02*
X75990000Y-78150000D01*
X75990000Y-72590000D02*
X75990000Y-73850000D01*
%TO.C,U1*%
X76500000Y-61900000D02*
X76500000Y-67500000D01*
X76500000Y-67500000D02*
X77300000Y-68300000D01*
X77300000Y-68300000D02*
X84900000Y-68300000D01*
X84900000Y-61900000D02*
X76500000Y-61900000D01*
X84900000Y-68300000D02*
X84900000Y-61900000D01*
%TO.C,R11*%
X76777064Y-59190000D02*
X75322936Y-59190000D01*
X76777064Y-61010000D02*
X75322936Y-61010000D01*
%TO.C,R2*%
X85177064Y-59190000D02*
X83722936Y-59190000D01*
X85177064Y-61010000D02*
X83722936Y-61010000D01*
%TO.C,R1*%
X86227064Y-76845000D02*
X84772936Y-76845000D01*
X86227064Y-75025000D02*
X84772936Y-75025000D01*
%TO.C,C9*%
X84788748Y-79110000D02*
X86211252Y-79110000D01*
X84788748Y-77290000D02*
X86211252Y-77290000D01*
%TO.C,C4*%
X78611252Y-71310000D02*
X77188748Y-71310000D01*
X78611252Y-69490000D02*
X77188748Y-69490000D01*
%TO.C,C3*%
X85511252Y-69590000D02*
X84088748Y-69590000D01*
X85511252Y-72310000D02*
X84088748Y-72310000D01*
%TO.C,C2*%
X84088748Y-82410000D02*
X85511252Y-82410000D01*
X84088748Y-79690000D02*
X85511252Y-79690000D01*
%TO.C,C1*%
X77188748Y-80690000D02*
X78611252Y-80690000D01*
X77188748Y-82510000D02*
X78611252Y-82510000D01*
%TD*%
M02*
