%TF.GenerationSoftware,KiCad,Pcbnew,(6.0.2)*%
%TF.CreationDate,2022-03-14T21:43:20-03:00*%
%TF.ProjectId,9_axis_double,395f6178-6973-45f6-946f-75626c652e6b,rev?*%
%TF.SameCoordinates,Original*%
%TF.FileFunction,Copper,L2,Bot*%
%TF.FilePolarity,Positive*%
%FSLAX46Y46*%
G04 Gerber Fmt 4.6, Leading zero omitted, Abs format (unit mm)*
G04 Created by KiCad (PCBNEW (6.0.2)) date 2022-03-14 21:43:20*
%MOMM*%
%LPD*%
G01*
G04 APERTURE LIST*
G04 Aperture macros list*
%AMRoundRect*
0 Rectangle with rounded corners*
0 $1 Rounding radius*
0 $2 $3 $4 $5 $6 $7 $8 $9 X,Y pos of 4 corners*
0 Add a 4 corners polygon primitive as box body*
4,1,4,$2,$3,$4,$5,$6,$7,$8,$9,$2,$3,0*
0 Add four circle primitives for the rounded corners*
1,1,$1+$1,$2,$3*
1,1,$1+$1,$4,$5*
1,1,$1+$1,$6,$7*
1,1,$1+$1,$8,$9*
0 Add four rect primitives between the rounded corners*
20,1,$1+$1,$2,$3,$4,$5,0*
20,1,$1+$1,$4,$5,$6,$7,0*
20,1,$1+$1,$6,$7,$8,$9,0*
20,1,$1+$1,$8,$9,$2,$3,0*%
G04 Aperture macros list end*
%TA.AperFunction,SMDPad,CuDef*%
%ADD10R,2.000000X1.500000*%
%TD*%
%TA.AperFunction,SMDPad,CuDef*%
%ADD11R,2.000000X3.800000*%
%TD*%
%TA.AperFunction,SMDPad,CuDef*%
%ADD12R,2.200000X0.600000*%
%TD*%
%TA.AperFunction,SMDPad,CuDef*%
%ADD13RoundRect,0.250000X0.400000X0.625000X-0.400000X0.625000X-0.400000X-0.625000X0.400000X-0.625000X0*%
%TD*%
%TA.AperFunction,ComponentPad*%
%ADD14R,1.524000X1.524000*%
%TD*%
%TA.AperFunction,ComponentPad*%
%ADD15C,1.524000*%
%TD*%
%TA.AperFunction,ComponentPad*%
%ADD16C,3.500000*%
%TD*%
%TA.AperFunction,SMDPad,CuDef*%
%ADD17RoundRect,0.250000X-0.412500X-0.650000X0.412500X-0.650000X0.412500X0.650000X-0.412500X0.650000X0*%
%TD*%
%TA.AperFunction,SMDPad,CuDef*%
%ADD18RoundRect,0.250000X0.412500X0.650000X-0.412500X0.650000X-0.412500X-0.650000X0.412500X-0.650000X0*%
%TD*%
%TA.AperFunction,SMDPad,CuDef*%
%ADD19RoundRect,0.250000X0.412500X1.100000X-0.412500X1.100000X-0.412500X-1.100000X0.412500X-1.100000X0*%
%TD*%
%TA.AperFunction,SMDPad,CuDef*%
%ADD20RoundRect,0.250000X-0.412500X-1.100000X0.412500X-1.100000X0.412500X1.100000X-0.412500X1.100000X0*%
%TD*%
%TA.AperFunction,ViaPad*%
%ADD21C,0.800000*%
%TD*%
%TA.AperFunction,Conductor*%
%ADD22C,0.250000*%
%TD*%
%TA.AperFunction,Conductor*%
%ADD23C,0.200000*%
%TD*%
G04 APERTURE END LIST*
D10*
%TO.P,U2,1,GND*%
%TO.N,GND*%
X81050000Y-73700000D03*
D11*
%TO.P,U2,2,VO*%
%TO.N,+3V3*%
X74750000Y-76000000D03*
D10*
X81050000Y-76000000D03*
%TO.P,U2,3,VI*%
%TO.N,+5V*%
X81050000Y-78300000D03*
%TD*%
D12*
%TO.P,U1,10*%
%TO.N,N/C*%
X83300000Y-67500000D03*
%TO.P,U1,9*%
X83300000Y-66300000D03*
%TO.P,U1,8,V3*%
%TO.N,+3V3*%
X83300000Y-65100000D03*
%TO.P,U1,7,RXD*%
%TO.N,uC_TX*%
X83300000Y-63900000D03*
%TO.P,U1,6,TXD*%
%TO.N,uC_RX*%
X83300000Y-62700000D03*
%TO.P,U1,5,VCC*%
%TO.N,+3V3*%
X78100000Y-62700000D03*
%TO.P,U1,4,RST#*%
%TO.N,unconnected-(U1-Pad4)*%
X78100000Y-63900000D03*
%TO.P,U1,3,GND*%
%TO.N,GND*%
X78100000Y-65100000D03*
%TO.P,U1,2,UD-*%
%TO.N,D-*%
X78100000Y-66300000D03*
%TO.P,U1,1,UD+*%
%TO.N,D+*%
X78100000Y-67500000D03*
%TD*%
D13*
%TO.P,R11,1*%
%TO.N,+3V3*%
X77600000Y-60100000D03*
%TO.P,R11,2*%
%TO.N,Net-(R11-Pad2)*%
X74500000Y-60100000D03*
%TD*%
%TO.P,R2,1*%
%TO.N,Net-(R2-Pad1)*%
X86000000Y-60100000D03*
%TO.P,R2,2*%
%TO.N,GND*%
X82900000Y-60100000D03*
%TD*%
%TO.P,R1,2*%
%TO.N,Net-(R1-Pad2)*%
X83950000Y-75935000D03*
%TO.P,R1,1*%
%TO.N,+3V3*%
X87050000Y-75935000D03*
%TD*%
D14*
%TO.P,J1,1,VBUS*%
%TO.N,+5V*%
X77140000Y-85972500D03*
D15*
%TO.P,J1,2,D-*%
%TO.N,D-*%
X79640000Y-85972500D03*
%TO.P,J1,3,D+*%
%TO.N,D+*%
X81640000Y-85972500D03*
%TO.P,J1,4,GND*%
%TO.N,GND*%
X84140000Y-85972500D03*
D16*
%TO.P,J1,5,Shield*%
X87210000Y-88682500D03*
X74070000Y-88682500D03*
%TD*%
D17*
%TO.P,C9,2*%
%TO.N,GND*%
X87062500Y-78200000D03*
%TO.P,C9,1*%
%TO.N,+3V3*%
X83937500Y-78200000D03*
%TD*%
D18*
%TO.P,C4,1*%
%TO.N,GND*%
X79462500Y-70400000D03*
%TO.P,C4,2*%
%TO.N,+3V3*%
X76337500Y-70400000D03*
%TD*%
D19*
%TO.P,C3,1*%
%TO.N,+3V3*%
X86362500Y-70950000D03*
%TO.P,C3,2*%
%TO.N,GND*%
X83237500Y-70950000D03*
%TD*%
D20*
%TO.P,C2,1*%
%TO.N,+5V*%
X83237500Y-81050000D03*
%TO.P,C2,2*%
%TO.N,GND*%
X86362500Y-81050000D03*
%TD*%
D17*
%TO.P,C1,1*%
%TO.N,GND*%
X76337500Y-81600000D03*
%TO.P,C1,2*%
%TO.N,+5V*%
X79462500Y-81600000D03*
%TD*%
D21*
%TO.N,+3V3*%
X84800000Y-79900000D03*
%TO.N,GND*%
X81800000Y-80500000D03*
X89000000Y-75700000D03*
%TO.N,+3V3*%
X75800000Y-73100000D03*
%TO.N,Net-(R1-Pad2)*%
X85200000Y-73700000D03*
%TO.N,uC_RX*%
X85800000Y-62900000D03*
%TO.N,uC_TX*%
X85800000Y-64700000D03*
%TO.N,Net-(R11-Pad2)*%
X75100000Y-62200000D03*
%TO.N,Net-(R2-Pad1)*%
X86000000Y-61900000D03*
%TO.N,D+*%
X75700000Y-67900000D03*
%TO.N,D-*%
X75700000Y-66100000D03*
%TO.N,D+*%
X81600000Y-87800000D03*
%TO.N,D-*%
X79800000Y-87800000D03*
%TD*%
D22*
%TO.N,GND*%
X81800000Y-80500000D02*
X81800000Y-81937493D01*
X81800000Y-81937493D02*
X82587027Y-82724520D01*
X82587027Y-82724520D02*
X84687980Y-82724520D01*
X84687980Y-82724520D02*
X86362500Y-81050000D01*
%TO.N,+3V3*%
X84800000Y-79900000D02*
X84800000Y-79062500D01*
X84800000Y-79062500D02*
X83937500Y-78200000D01*
%TO.N,GND*%
X89000000Y-75700000D02*
X89000000Y-76262500D01*
X89000000Y-76262500D02*
X87062500Y-78200000D01*
%TO.N,+3V3*%
X74750000Y-76000000D02*
X74750000Y-74150000D01*
X74750000Y-74150000D02*
X75800000Y-73100000D01*
X74750000Y-71987500D02*
X74750000Y-72050000D01*
X74750000Y-72050000D02*
X75800000Y-73100000D01*
%TO.N,Net-(R1-Pad2)*%
X83950000Y-75935000D02*
X83950000Y-74950000D01*
X83950000Y-74950000D02*
X85200000Y-73700000D01*
%TO.N,uC_TX*%
X83300000Y-63900000D02*
X85000000Y-63900000D01*
X85000000Y-63900000D02*
X85800000Y-64700000D01*
%TO.N,uC_RX*%
X83300000Y-62700000D02*
X85600000Y-62700000D01*
X85600000Y-62700000D02*
X85800000Y-62900000D01*
%TO.N,Net-(R2-Pad1)*%
X86000000Y-60100000D02*
X86000000Y-61900000D01*
%TO.N,Net-(R11-Pad2)*%
X74500000Y-60100000D02*
X74500000Y-61600000D01*
X74500000Y-61600000D02*
X75100000Y-62200000D01*
D23*
%TO.N,D+*%
X75700000Y-67900000D02*
X76100000Y-67500000D01*
X76100000Y-67500000D02*
X78100000Y-67500000D01*
%TO.N,D-*%
X75700000Y-66100000D02*
X75900000Y-66300000D01*
X75900000Y-66300000D02*
X78100000Y-66300000D01*
D22*
%TO.N,GND*%
X76053489Y-87059011D02*
X75693489Y-87059011D01*
X75693489Y-87059011D02*
X74070000Y-88682500D01*
X84140000Y-85972500D02*
X86850000Y-88682500D01*
X86850000Y-88682500D02*
X87210000Y-88682500D01*
D23*
%TO.N,D+*%
X81640000Y-85972500D02*
X81640000Y-87760000D01*
X81640000Y-87760000D02*
X81600000Y-87800000D01*
%TO.N,D-*%
X79640000Y-85972500D02*
X79640000Y-87640000D01*
X79640000Y-87640000D02*
X79800000Y-87800000D01*
D22*
%TO.N,GND*%
X78100000Y-65100000D02*
X77300000Y-65100000D01*
X77300000Y-65100000D02*
X76500000Y-64300000D01*
X76500000Y-64300000D02*
X76500000Y-59175020D01*
X76500000Y-59175020D02*
X76774540Y-58900480D01*
X76774540Y-58900480D02*
X81700480Y-58900480D01*
X81700480Y-58900480D02*
X82900000Y-60100000D01*
%TO.N,+3V3*%
X78100000Y-62700000D02*
X78100000Y-60600000D01*
X78100000Y-60600000D02*
X77600000Y-60100000D01*
X81050000Y-76000000D02*
X81312500Y-76000000D01*
X81312500Y-76000000D02*
X86362500Y-70950000D01*
X87050000Y-75935000D02*
X87050000Y-71637500D01*
X87050000Y-71637500D02*
X86362500Y-70950000D01*
X83937500Y-78200000D02*
X84785000Y-78200000D01*
X84785000Y-78200000D02*
X87050000Y-75935000D01*
X83937500Y-78200000D02*
X83250000Y-78200000D01*
X83250000Y-78200000D02*
X81050000Y-76000000D01*
%TO.N,GND*%
X86362500Y-81050000D02*
X86362500Y-78900000D01*
X86362500Y-78900000D02*
X87062500Y-78200000D01*
X86362500Y-81050000D02*
X85562493Y-81050000D01*
X85562493Y-81050000D02*
X81726504Y-84885989D01*
X81726504Y-84885989D02*
X79140522Y-84885989D01*
X79140522Y-84885989D02*
X78226511Y-85800000D01*
X73100000Y-84105522D02*
X73100000Y-71762507D01*
X78226511Y-85800000D02*
X78226511Y-87059011D01*
X78226511Y-87059011D02*
X76053489Y-87059011D01*
X76053489Y-87059011D02*
X73100000Y-84105522D01*
X73100000Y-71762507D02*
X75687027Y-69175480D01*
X75687027Y-69175480D02*
X78237980Y-69175480D01*
X78237980Y-69175480D02*
X79462500Y-70400000D01*
%TO.N,+3V3*%
X83300000Y-65100000D02*
X82500000Y-65100000D01*
X82500000Y-65100000D02*
X80100000Y-62700000D01*
X80100000Y-62700000D02*
X78100000Y-62700000D01*
X83300000Y-65100000D02*
X84100000Y-65100000D01*
X84100000Y-65100000D02*
X86362500Y-67362500D01*
X86362500Y-67362500D02*
X86362500Y-70950000D01*
%TO.N,GND*%
X79462500Y-70400000D02*
X79524511Y-70337989D01*
X79524511Y-70337989D02*
X79524511Y-65724511D01*
X79524511Y-65724511D02*
X78900000Y-65100000D01*
X78900000Y-65100000D02*
X78100000Y-65100000D01*
X84140000Y-85972500D02*
X84140000Y-83272500D01*
X84140000Y-83272500D02*
X86362500Y-81050000D01*
%TO.N,+5V*%
X79462500Y-81600000D02*
X77140000Y-83922500D01*
X77140000Y-83922500D02*
X77140000Y-85972500D01*
X83237500Y-81050000D02*
X83237500Y-80487500D01*
X83237500Y-80487500D02*
X81050000Y-78300000D01*
%TO.N,+3V3*%
X86362500Y-70950000D02*
X86100000Y-70950000D01*
%TO.N,GND*%
X83237500Y-70950000D02*
X83237500Y-71512500D01*
X83237500Y-71512500D02*
X81050000Y-73700000D01*
%TO.N,+3V3*%
X74750000Y-76000000D02*
X74750000Y-81887493D01*
X74750000Y-81887493D02*
X75687027Y-82824520D01*
X75687027Y-82824520D02*
X77075480Y-82824520D01*
X77075480Y-82824520D02*
X78400000Y-81500000D01*
X78400000Y-81500000D02*
X78400000Y-78650000D01*
X78400000Y-78650000D02*
X81050000Y-76000000D01*
X76337500Y-70400000D02*
X74750000Y-71987500D01*
X74750000Y-71987500D02*
X74750000Y-76000000D01*
%TO.N,GND*%
X81050000Y-73700000D02*
X81050000Y-71987500D01*
X81050000Y-71987500D02*
X79462500Y-70400000D01*
X76337500Y-81600000D02*
X76337500Y-78412500D01*
X76337500Y-78412500D02*
X81050000Y-73700000D01*
%TO.N,+5V*%
X81050000Y-78300000D02*
X81050000Y-80012500D01*
X81050000Y-80012500D02*
X79462500Y-81600000D01*
%TD*%
%TA.AperFunction,Conductor*%
%TO.N,GND*%
G36*
X73292244Y-59228002D02*
G01*
X73338737Y-59281658D01*
X73349467Y-59346843D01*
X73341500Y-59424600D01*
X73341500Y-60775400D01*
X73341837Y-60778646D01*
X73341837Y-60778650D01*
X73351752Y-60874206D01*
X73352474Y-60881166D01*
X73408450Y-61048946D01*
X73501522Y-61199348D01*
X73506704Y-61204521D01*
X73568451Y-61266161D01*
X73626697Y-61324305D01*
X73632927Y-61328145D01*
X73632928Y-61328146D01*
X73770288Y-61412816D01*
X73777262Y-61417115D01*
X73784209Y-61419419D01*
X73790844Y-61422513D01*
X73789610Y-61425159D01*
X73837036Y-61458029D01*
X73864260Y-61523598D01*
X73864369Y-61539590D01*
X73864298Y-61539909D01*
X73864392Y-61542899D01*
X73864392Y-61542902D01*
X73866438Y-61607986D01*
X73866500Y-61611945D01*
X73866500Y-61639856D01*
X73866997Y-61643790D01*
X73866997Y-61643791D01*
X73867005Y-61643856D01*
X73867938Y-61655693D01*
X73869327Y-61699889D01*
X73874978Y-61719339D01*
X73878987Y-61738700D01*
X73881526Y-61758797D01*
X73884445Y-61766168D01*
X73884445Y-61766170D01*
X73897804Y-61799912D01*
X73901649Y-61811142D01*
X73911771Y-61845983D01*
X73913982Y-61853593D01*
X73918015Y-61860412D01*
X73918017Y-61860417D01*
X73924293Y-61871028D01*
X73932988Y-61888776D01*
X73940448Y-61907617D01*
X73945110Y-61914033D01*
X73945110Y-61914034D01*
X73966436Y-61943387D01*
X73972952Y-61953307D01*
X73995458Y-61991362D01*
X74009779Y-62005683D01*
X74022619Y-62020716D01*
X74034528Y-62037107D01*
X74065254Y-62062526D01*
X74068605Y-62065298D01*
X74077384Y-62073288D01*
X74152878Y-62148782D01*
X74186904Y-62211094D01*
X74189093Y-62224707D01*
X74202458Y-62351866D01*
X74206458Y-62389928D01*
X74265473Y-62571556D01*
X74360960Y-62736944D01*
X74488747Y-62878866D01*
X74643248Y-62991118D01*
X74649276Y-62993802D01*
X74649278Y-62993803D01*
X74778938Y-63051531D01*
X74817712Y-63068794D01*
X74886263Y-63083365D01*
X74998056Y-63107128D01*
X74998061Y-63107128D01*
X75004513Y-63108500D01*
X75195487Y-63108500D01*
X75201939Y-63107128D01*
X75201944Y-63107128D01*
X75313737Y-63083365D01*
X75382288Y-63068794D01*
X75421062Y-63051531D01*
X75550722Y-62993803D01*
X75550724Y-62993802D01*
X75556752Y-62991118D01*
X75711253Y-62878866D01*
X75839040Y-62736944D01*
X75934527Y-62571556D01*
X75993542Y-62389928D01*
X75997543Y-62351866D01*
X76012814Y-62206565D01*
X76013504Y-62200000D01*
X76005895Y-62127604D01*
X75994232Y-62016635D01*
X75994232Y-62016633D01*
X75993542Y-62010072D01*
X75934527Y-61828444D01*
X75921241Y-61805431D01*
X75862560Y-61703794D01*
X75839040Y-61663056D01*
X75814582Y-61635892D01*
X75715675Y-61526045D01*
X75715674Y-61526044D01*
X75711253Y-61521134D01*
X75579155Y-61425159D01*
X75562094Y-61412763D01*
X75562093Y-61412762D01*
X75556752Y-61408882D01*
X75550717Y-61406195D01*
X75538536Y-61400771D01*
X75484441Y-61354791D01*
X75463792Y-61286864D01*
X75483145Y-61218556D01*
X75490904Y-61207573D01*
X75494134Y-61203483D01*
X75499305Y-61198303D01*
X75592115Y-61047738D01*
X75647797Y-60879861D01*
X75658500Y-60775400D01*
X75658500Y-59424600D01*
X75650449Y-59347003D01*
X75663314Y-59277182D01*
X75711885Y-59225400D01*
X75775776Y-59208000D01*
X76324123Y-59208000D01*
X76392244Y-59228002D01*
X76438737Y-59281658D01*
X76449467Y-59346843D01*
X76441500Y-59424600D01*
X76441500Y-60775400D01*
X76441837Y-60778646D01*
X76441837Y-60778650D01*
X76451752Y-60874206D01*
X76452474Y-60881166D01*
X76508450Y-61048946D01*
X76601522Y-61199348D01*
X76606704Y-61204521D01*
X76668451Y-61266161D01*
X76726697Y-61324305D01*
X76732927Y-61328145D01*
X76732928Y-61328146D01*
X76870288Y-61412816D01*
X76877262Y-61417115D01*
X76923433Y-61432429D01*
X77038611Y-61470632D01*
X77038613Y-61470632D01*
X77045139Y-61472797D01*
X77051975Y-61473497D01*
X77051978Y-61473498D01*
X77095031Y-61477909D01*
X77149600Y-61483500D01*
X77340500Y-61483500D01*
X77408621Y-61503502D01*
X77455114Y-61557158D01*
X77466500Y-61609500D01*
X77466500Y-61765500D01*
X77446498Y-61833621D01*
X77392842Y-61880114D01*
X77340500Y-61891500D01*
X76951866Y-61891500D01*
X76889684Y-61898255D01*
X76753295Y-61949385D01*
X76636739Y-62036739D01*
X76549385Y-62153295D01*
X76498255Y-62289684D01*
X76491500Y-62351866D01*
X76491500Y-63048134D01*
X76498255Y-63110316D01*
X76547174Y-63240806D01*
X76549385Y-63246705D01*
X76548534Y-63247024D01*
X76562055Y-63308849D01*
X76549042Y-63353166D01*
X76549385Y-63353295D01*
X76498255Y-63489684D01*
X76491500Y-63551866D01*
X76491500Y-64248134D01*
X76498255Y-64310316D01*
X76547589Y-64441914D01*
X76549385Y-64446705D01*
X76548693Y-64446964D01*
X76562343Y-64509374D01*
X76549420Y-64553385D01*
X76549828Y-64553538D01*
X76547738Y-64559112D01*
X76547174Y-64561034D01*
X76546679Y-64561939D01*
X76501522Y-64682394D01*
X76497895Y-64697649D01*
X76492369Y-64748514D01*
X76492000Y-64755328D01*
X76492000Y-64827885D01*
X76496475Y-64843124D01*
X76497865Y-64844329D01*
X76505548Y-64846000D01*
X79689884Y-64846000D01*
X79705123Y-64841525D01*
X79706328Y-64840135D01*
X79707999Y-64832452D01*
X79707999Y-64755331D01*
X79707629Y-64748510D01*
X79702105Y-64697648D01*
X79698479Y-64682396D01*
X79653321Y-64561939D01*
X79652826Y-64561034D01*
X79652607Y-64560034D01*
X79650172Y-64553538D01*
X79651110Y-64553186D01*
X79637657Y-64491677D01*
X79650838Y-64446788D01*
X79650615Y-64446705D01*
X79651756Y-64443663D01*
X79651758Y-64443656D01*
X79701745Y-64310316D01*
X79708500Y-64248134D01*
X79708500Y-63551866D01*
X79704795Y-63517760D01*
X79717323Y-63447877D01*
X79765644Y-63395862D01*
X79834416Y-63378227D01*
X79901804Y-63400573D01*
X79919153Y-63415057D01*
X81654595Y-65150499D01*
X81688621Y-65212811D01*
X81691500Y-65239594D01*
X81691500Y-65448134D01*
X81698255Y-65510316D01*
X81701029Y-65517715D01*
X81746145Y-65638061D01*
X81749294Y-65646462D01*
X81749385Y-65646705D01*
X81748534Y-65647024D01*
X81762055Y-65708849D01*
X81749042Y-65753166D01*
X81749385Y-65753295D01*
X81698255Y-65889684D01*
X81691500Y-65951866D01*
X81691500Y-66648134D01*
X81698255Y-66710316D01*
X81749385Y-66846705D01*
X81748534Y-66847024D01*
X81762055Y-66908849D01*
X81749042Y-66953166D01*
X81749385Y-66953295D01*
X81746236Y-66961696D01*
X81746234Y-66961699D01*
X81726511Y-67014311D01*
X81698255Y-67089684D01*
X81691500Y-67151866D01*
X81691500Y-67848134D01*
X81698255Y-67910316D01*
X81749385Y-68046705D01*
X81836739Y-68163261D01*
X81953295Y-68250615D01*
X82089684Y-68301745D01*
X82151866Y-68308500D01*
X84448134Y-68308500D01*
X84510316Y-68301745D01*
X84646705Y-68250615D01*
X84763261Y-68163261D01*
X84850615Y-68046705D01*
X84901745Y-67910316D01*
X84908500Y-67848134D01*
X84908500Y-67151866D01*
X84904795Y-67117760D01*
X84917323Y-67047877D01*
X84965644Y-66995862D01*
X85034416Y-66978227D01*
X85101804Y-67000573D01*
X85119153Y-67015057D01*
X85692095Y-67587999D01*
X85726121Y-67650311D01*
X85729000Y-67677094D01*
X85729000Y-69033314D01*
X85708998Y-69101435D01*
X85655342Y-69147928D01*
X85642885Y-69152835D01*
X85626054Y-69158450D01*
X85619830Y-69162301D01*
X85619829Y-69162302D01*
X85497300Y-69238126D01*
X85475652Y-69251522D01*
X85350695Y-69376697D01*
X85257885Y-69527262D01*
X85202203Y-69695139D01*
X85191500Y-69799600D01*
X85191500Y-71172905D01*
X85171498Y-71241026D01*
X85154595Y-71262000D01*
X84623095Y-71793500D01*
X84560783Y-71827526D01*
X84489968Y-71822461D01*
X84433132Y-71779914D01*
X84408321Y-71713394D01*
X84408000Y-71704405D01*
X84408000Y-71222115D01*
X84403525Y-71206876D01*
X84402135Y-71205671D01*
X84394452Y-71204000D01*
X83509615Y-71204000D01*
X83494376Y-71208475D01*
X83493171Y-71209865D01*
X83491500Y-71217548D01*
X83491500Y-72789885D01*
X83501128Y-72822676D01*
X83501128Y-72893672D01*
X83469327Y-72947268D01*
X82773095Y-73643500D01*
X82710783Y-73677526D01*
X82639968Y-73672461D01*
X82583132Y-73629914D01*
X82558321Y-73563394D01*
X82558000Y-73554405D01*
X82557999Y-72925373D01*
X82578001Y-72857252D01*
X82631657Y-72810759D01*
X82696842Y-72800029D01*
X82771440Y-72807672D01*
X82777854Y-72808000D01*
X82965385Y-72808000D01*
X82980624Y-72803525D01*
X82981829Y-72802135D01*
X82983500Y-72794452D01*
X82983500Y-71222115D01*
X82979025Y-71206876D01*
X82977635Y-71205671D01*
X82969952Y-71204000D01*
X82085116Y-71204000D01*
X82069877Y-71208475D01*
X82068672Y-71209865D01*
X82067001Y-71217548D01*
X82067001Y-72097095D01*
X82067338Y-72103614D01*
X82077257Y-72199206D01*
X82080149Y-72212600D01*
X82101342Y-72276124D01*
X82103926Y-72347074D01*
X82067742Y-72408158D01*
X82004278Y-72439982D01*
X81981818Y-72442000D01*
X81322115Y-72442000D01*
X81306876Y-72446475D01*
X81305671Y-72447865D01*
X81304000Y-72455548D01*
X81304000Y-73828000D01*
X81283998Y-73896121D01*
X81230342Y-73942614D01*
X81178000Y-73954000D01*
X79560116Y-73954000D01*
X79544877Y-73958475D01*
X79543672Y-73959865D01*
X79542001Y-73967548D01*
X79542001Y-74494669D01*
X79542371Y-74501490D01*
X79547895Y-74552352D01*
X79551521Y-74567604D01*
X79596676Y-74688054D01*
X79605214Y-74703648D01*
X79657953Y-74774018D01*
X79682801Y-74840524D01*
X79667748Y-74909907D01*
X79657953Y-74925148D01*
X79599385Y-75003295D01*
X79548255Y-75139684D01*
X79541500Y-75201866D01*
X79541500Y-76560406D01*
X79521498Y-76628527D01*
X79504595Y-76649501D01*
X78753301Y-77400794D01*
X78007747Y-78146348D01*
X77999461Y-78153888D01*
X77992982Y-78158000D01*
X77987557Y-78163777D01*
X77946357Y-78207651D01*
X77943602Y-78210493D01*
X77923865Y-78230230D01*
X77921385Y-78233427D01*
X77913682Y-78242447D01*
X77883414Y-78274679D01*
X77879595Y-78281625D01*
X77879593Y-78281628D01*
X77873652Y-78292434D01*
X77862801Y-78308953D01*
X77850386Y-78324959D01*
X77847241Y-78332228D01*
X77847238Y-78332232D01*
X77832826Y-78365537D01*
X77827609Y-78376187D01*
X77806305Y-78414940D01*
X77804334Y-78422615D01*
X77804334Y-78422616D01*
X77801267Y-78434562D01*
X77794863Y-78453266D01*
X77786819Y-78471855D01*
X77785580Y-78479678D01*
X77785577Y-78479688D01*
X77779901Y-78515524D01*
X77777495Y-78527144D01*
X77769171Y-78559567D01*
X77766500Y-78569970D01*
X77766500Y-78590224D01*
X77764949Y-78609934D01*
X77761780Y-78629943D01*
X77762526Y-78637835D01*
X77765941Y-78673961D01*
X77766500Y-78685819D01*
X77766500Y-81185405D01*
X77746498Y-81253526D01*
X77729595Y-81274500D01*
X77723094Y-81281001D01*
X77660782Y-81315027D01*
X77589967Y-81309962D01*
X77533131Y-81267415D01*
X77508320Y-81200895D01*
X77507999Y-81191906D01*
X77507999Y-80902905D01*
X77507662Y-80896386D01*
X77497743Y-80800794D01*
X77494851Y-80787400D01*
X77443412Y-80633216D01*
X77437239Y-80620038D01*
X77351937Y-80482193D01*
X77342901Y-80470792D01*
X77228171Y-80356261D01*
X77216760Y-80347249D01*
X77078757Y-80262184D01*
X77065576Y-80256037D01*
X76911290Y-80204862D01*
X76897914Y-80201995D01*
X76803562Y-80192328D01*
X76797145Y-80192000D01*
X76609615Y-80192000D01*
X76594376Y-80196475D01*
X76593171Y-80197865D01*
X76591500Y-80205548D01*
X76591500Y-81728000D01*
X76571498Y-81796121D01*
X76517842Y-81842614D01*
X76465500Y-81854000D01*
X76209500Y-81854000D01*
X76141379Y-81833998D01*
X76094886Y-81780342D01*
X76083500Y-81728000D01*
X76083500Y-80210116D01*
X76079025Y-80194877D01*
X76077635Y-80193672D01*
X76069952Y-80192001D01*
X75877905Y-80192001D01*
X75871386Y-80192338D01*
X75775794Y-80202257D01*
X75762400Y-80205149D01*
X75608216Y-80256588D01*
X75595040Y-80262761D01*
X75575802Y-80274665D01*
X75507350Y-80293502D01*
X75439581Y-80272340D01*
X75394010Y-80217899D01*
X75383500Y-80167520D01*
X75383500Y-78534500D01*
X75403502Y-78466379D01*
X75457158Y-78419886D01*
X75509500Y-78408500D01*
X75798134Y-78408500D01*
X75860316Y-78401745D01*
X75996705Y-78350615D01*
X76113261Y-78263261D01*
X76200615Y-78146705D01*
X76251745Y-78010316D01*
X76258500Y-77948134D01*
X76258500Y-74051866D01*
X76252599Y-73997540D01*
X76252598Y-73997537D01*
X76251745Y-73989684D01*
X76251210Y-73988258D01*
X76254763Y-73920184D01*
X76299583Y-73859999D01*
X76411253Y-73778866D01*
X76415675Y-73773955D01*
X76534621Y-73641852D01*
X76534622Y-73641851D01*
X76539040Y-73636944D01*
X76634527Y-73471556D01*
X76648717Y-73427885D01*
X79542000Y-73427885D01*
X79546475Y-73443124D01*
X79547865Y-73444329D01*
X79555548Y-73446000D01*
X80777885Y-73446000D01*
X80793124Y-73441525D01*
X80794329Y-73440135D01*
X80796000Y-73432452D01*
X80796000Y-72460116D01*
X80791525Y-72444877D01*
X80790135Y-72443672D01*
X80782452Y-72442001D01*
X80005331Y-72442001D01*
X79998510Y-72442371D01*
X79947648Y-72447895D01*
X79932396Y-72451521D01*
X79811946Y-72496676D01*
X79796351Y-72505214D01*
X79694276Y-72581715D01*
X79681715Y-72594276D01*
X79605214Y-72696351D01*
X79596676Y-72711946D01*
X79551522Y-72832394D01*
X79547895Y-72847649D01*
X79542369Y-72898514D01*
X79542000Y-72905328D01*
X79542000Y-73427885D01*
X76648717Y-73427885D01*
X76693542Y-73289928D01*
X76707393Y-73158148D01*
X76712814Y-73106565D01*
X76713504Y-73100000D01*
X76699598Y-72967689D01*
X76694232Y-72916635D01*
X76694232Y-72916633D01*
X76693542Y-72910072D01*
X76634527Y-72728444D01*
X76539040Y-72563056D01*
X76442240Y-72455548D01*
X76415675Y-72426045D01*
X76415674Y-72426044D01*
X76411253Y-72421134D01*
X76256752Y-72308882D01*
X76250724Y-72306198D01*
X76250722Y-72306197D01*
X76088319Y-72233891D01*
X76088318Y-72233891D01*
X76082288Y-72231206D01*
X75988887Y-72211353D01*
X75901944Y-72192872D01*
X75901939Y-72192872D01*
X75895487Y-72191500D01*
X75839595Y-72191500D01*
X75771474Y-72171498D01*
X75750500Y-72154595D01*
X75703750Y-72107845D01*
X75669724Y-72045533D01*
X75674789Y-71974718D01*
X75703750Y-71929655D01*
X75788000Y-71845405D01*
X75850312Y-71811379D01*
X75877095Y-71808500D01*
X76800400Y-71808500D01*
X76803646Y-71808163D01*
X76803650Y-71808163D01*
X76899308Y-71798238D01*
X76899312Y-71798237D01*
X76906166Y-71797526D01*
X76912702Y-71795345D01*
X76912704Y-71795345D01*
X77066998Y-71743868D01*
X77073946Y-71741550D01*
X77224348Y-71648478D01*
X77349305Y-71523303D01*
X77369776Y-71490093D01*
X77438275Y-71378968D01*
X77438276Y-71378966D01*
X77442115Y-71372738D01*
X77485802Y-71241026D01*
X77495632Y-71211389D01*
X77495632Y-71211387D01*
X77497797Y-71204861D01*
X77508500Y-71100400D01*
X77508500Y-71097095D01*
X78292001Y-71097095D01*
X78292338Y-71103614D01*
X78302257Y-71199206D01*
X78305149Y-71212600D01*
X78356588Y-71366784D01*
X78362761Y-71379962D01*
X78448063Y-71517807D01*
X78457099Y-71529208D01*
X78571829Y-71643739D01*
X78583240Y-71652751D01*
X78721243Y-71737816D01*
X78734424Y-71743963D01*
X78888710Y-71795138D01*
X78902086Y-71798005D01*
X78996438Y-71807672D01*
X79002854Y-71808000D01*
X79190385Y-71808000D01*
X79205624Y-71803525D01*
X79206829Y-71802135D01*
X79208500Y-71794452D01*
X79208500Y-71789884D01*
X79716500Y-71789884D01*
X79720975Y-71805123D01*
X79722365Y-71806328D01*
X79730048Y-71807999D01*
X79922095Y-71807999D01*
X79928614Y-71807662D01*
X80024206Y-71797743D01*
X80037600Y-71794851D01*
X80191784Y-71743412D01*
X80204962Y-71737239D01*
X80342807Y-71651937D01*
X80354208Y-71642901D01*
X80468739Y-71528171D01*
X80477751Y-71516760D01*
X80562816Y-71378757D01*
X80568963Y-71365576D01*
X80620138Y-71211290D01*
X80623005Y-71197914D01*
X80632672Y-71103562D01*
X80633000Y-71097146D01*
X80633000Y-70677885D01*
X82067000Y-70677885D01*
X82071475Y-70693124D01*
X82072865Y-70694329D01*
X82080548Y-70696000D01*
X82965385Y-70696000D01*
X82980624Y-70691525D01*
X82981829Y-70690135D01*
X82983500Y-70682452D01*
X82983500Y-70677885D01*
X83491500Y-70677885D01*
X83495975Y-70693124D01*
X83497365Y-70694329D01*
X83505048Y-70696000D01*
X84389884Y-70696000D01*
X84405123Y-70691525D01*
X84406328Y-70690135D01*
X84407999Y-70682452D01*
X84407999Y-69802905D01*
X84407662Y-69796386D01*
X84397743Y-69700794D01*
X84394851Y-69687400D01*
X84343412Y-69533216D01*
X84337239Y-69520038D01*
X84251937Y-69382193D01*
X84242901Y-69370792D01*
X84128171Y-69256261D01*
X84116760Y-69247249D01*
X83978757Y-69162184D01*
X83965576Y-69156037D01*
X83811290Y-69104862D01*
X83797914Y-69101995D01*
X83703562Y-69092328D01*
X83697145Y-69092000D01*
X83509615Y-69092000D01*
X83494376Y-69096475D01*
X83493171Y-69097865D01*
X83491500Y-69105548D01*
X83491500Y-70677885D01*
X82983500Y-70677885D01*
X82983500Y-69110116D01*
X82979025Y-69094877D01*
X82977635Y-69093672D01*
X82969952Y-69092001D01*
X82777905Y-69092001D01*
X82771386Y-69092338D01*
X82675794Y-69102257D01*
X82662400Y-69105149D01*
X82508216Y-69156588D01*
X82495038Y-69162761D01*
X82357193Y-69248063D01*
X82345792Y-69257099D01*
X82231261Y-69371829D01*
X82222249Y-69383240D01*
X82137184Y-69521243D01*
X82131037Y-69534424D01*
X82079862Y-69688710D01*
X82076995Y-69702086D01*
X82067328Y-69796438D01*
X82067000Y-69802855D01*
X82067000Y-70677885D01*
X80633000Y-70677885D01*
X80633000Y-70672115D01*
X80628525Y-70656876D01*
X80627135Y-70655671D01*
X80619452Y-70654000D01*
X79734615Y-70654000D01*
X79719376Y-70658475D01*
X79718171Y-70659865D01*
X79716500Y-70667548D01*
X79716500Y-71789884D01*
X79208500Y-71789884D01*
X79208500Y-70672115D01*
X79204025Y-70656876D01*
X79202635Y-70655671D01*
X79194952Y-70654000D01*
X78310116Y-70654000D01*
X78294877Y-70658475D01*
X78293672Y-70659865D01*
X78292001Y-70667548D01*
X78292001Y-71097095D01*
X77508500Y-71097095D01*
X77508500Y-70127885D01*
X78292000Y-70127885D01*
X78296475Y-70143124D01*
X78297865Y-70144329D01*
X78305548Y-70146000D01*
X79190385Y-70146000D01*
X79205624Y-70141525D01*
X79206829Y-70140135D01*
X79208500Y-70132452D01*
X79208500Y-70127885D01*
X79716500Y-70127885D01*
X79720975Y-70143124D01*
X79722365Y-70144329D01*
X79730048Y-70146000D01*
X80614884Y-70146000D01*
X80630123Y-70141525D01*
X80631328Y-70140135D01*
X80632999Y-70132452D01*
X80632999Y-69702905D01*
X80632662Y-69696386D01*
X80622743Y-69600794D01*
X80619851Y-69587400D01*
X80568412Y-69433216D01*
X80562239Y-69420038D01*
X80476937Y-69282193D01*
X80467901Y-69270792D01*
X80353171Y-69156261D01*
X80341760Y-69147249D01*
X80203757Y-69062184D01*
X80190576Y-69056037D01*
X80036290Y-69004862D01*
X80022914Y-69001995D01*
X79928562Y-68992328D01*
X79922145Y-68992000D01*
X79734615Y-68992000D01*
X79719376Y-68996475D01*
X79718171Y-68997865D01*
X79716500Y-69005548D01*
X79716500Y-70127885D01*
X79208500Y-70127885D01*
X79208500Y-69010116D01*
X79204025Y-68994877D01*
X79202635Y-68993672D01*
X79194952Y-68992001D01*
X79002905Y-68992001D01*
X78996386Y-68992338D01*
X78900794Y-69002257D01*
X78887400Y-69005149D01*
X78733216Y-69056588D01*
X78720038Y-69062761D01*
X78582193Y-69148063D01*
X78570792Y-69157099D01*
X78456261Y-69271829D01*
X78447249Y-69283240D01*
X78362184Y-69421243D01*
X78356037Y-69434424D01*
X78304862Y-69588710D01*
X78301995Y-69602086D01*
X78292328Y-69696438D01*
X78292000Y-69702855D01*
X78292000Y-70127885D01*
X77508500Y-70127885D01*
X77508500Y-69699600D01*
X77507234Y-69687400D01*
X77498238Y-69600692D01*
X77498237Y-69600688D01*
X77497526Y-69593834D01*
X77477634Y-69534209D01*
X77443868Y-69433002D01*
X77441550Y-69426054D01*
X77348478Y-69275652D01*
X77328658Y-69255866D01*
X77228483Y-69155866D01*
X77223303Y-69150695D01*
X77157472Y-69110116D01*
X77078968Y-69061725D01*
X77078966Y-69061724D01*
X77072738Y-69057885D01*
X76970903Y-69024108D01*
X76911389Y-69004368D01*
X76911387Y-69004368D01*
X76904861Y-69002203D01*
X76898025Y-69001503D01*
X76898022Y-69001502D01*
X76854969Y-68997091D01*
X76800400Y-68991500D01*
X76074867Y-68991500D01*
X76006746Y-68971498D01*
X75960253Y-68917842D01*
X75950149Y-68847568D01*
X75979643Y-68782988D01*
X76023618Y-68750393D01*
X76150722Y-68693803D01*
X76150724Y-68693802D01*
X76156752Y-68691118D01*
X76311253Y-68578866D01*
X76439040Y-68436944D01*
X76531621Y-68276589D01*
X76531623Y-68276587D01*
X76534527Y-68271556D01*
X76535447Y-68272087D01*
X76577412Y-68222717D01*
X76645340Y-68202069D01*
X76713647Y-68221422D01*
X76722100Y-68227236D01*
X76753295Y-68250615D01*
X76889684Y-68301745D01*
X76951866Y-68308500D01*
X79248134Y-68308500D01*
X79310316Y-68301745D01*
X79446705Y-68250615D01*
X79563261Y-68163261D01*
X79650615Y-68046705D01*
X79701745Y-67910316D01*
X79708500Y-67848134D01*
X79708500Y-67151866D01*
X79701745Y-67089684D01*
X79673489Y-67014311D01*
X79653766Y-66961699D01*
X79653764Y-66961696D01*
X79650615Y-66953295D01*
X79651466Y-66952976D01*
X79637945Y-66891151D01*
X79650958Y-66846834D01*
X79650615Y-66846705D01*
X79652372Y-66842019D01*
X79652373Y-66842015D01*
X79701745Y-66710316D01*
X79708500Y-66648134D01*
X79708500Y-65951866D01*
X79701745Y-65889684D01*
X79650615Y-65753295D01*
X79651307Y-65753036D01*
X79637657Y-65690626D01*
X79650580Y-65646615D01*
X79650172Y-65646462D01*
X79652262Y-65640888D01*
X79652826Y-65638966D01*
X79653321Y-65638061D01*
X79698478Y-65517606D01*
X79702105Y-65502351D01*
X79707631Y-65451486D01*
X79708000Y-65444672D01*
X79708000Y-65372115D01*
X79703525Y-65356876D01*
X79702135Y-65355671D01*
X79694452Y-65354000D01*
X76510116Y-65354000D01*
X76494877Y-65358475D01*
X76474794Y-65381652D01*
X76464269Y-65400926D01*
X76401957Y-65434952D01*
X76331142Y-65429887D01*
X76301113Y-65413767D01*
X76162094Y-65312763D01*
X76162093Y-65312762D01*
X76156752Y-65308882D01*
X76150724Y-65306198D01*
X76150722Y-65306197D01*
X75988319Y-65233891D01*
X75988318Y-65233891D01*
X75982288Y-65231206D01*
X75888887Y-65211353D01*
X75801944Y-65192872D01*
X75801939Y-65192872D01*
X75795487Y-65191500D01*
X75604513Y-65191500D01*
X75598061Y-65192872D01*
X75598056Y-65192872D01*
X75511113Y-65211353D01*
X75417712Y-65231206D01*
X75411682Y-65233891D01*
X75411681Y-65233891D01*
X75249278Y-65306197D01*
X75249276Y-65306198D01*
X75243248Y-65308882D01*
X75088747Y-65421134D01*
X75084326Y-65426044D01*
X75084325Y-65426045D01*
X75023316Y-65493803D01*
X74960960Y-65563056D01*
X74865473Y-65728444D01*
X74806458Y-65910072D01*
X74786496Y-66100000D01*
X74806458Y-66289928D01*
X74865473Y-66471556D01*
X74960960Y-66636944D01*
X74965378Y-66641851D01*
X74965379Y-66641852D01*
X74974094Y-66651531D01*
X75088747Y-66778866D01*
X75243248Y-66891118D01*
X75245326Y-66892043D01*
X75293212Y-66942267D01*
X75306646Y-67011981D01*
X75280257Y-67077891D01*
X75245805Y-67107744D01*
X75243248Y-67108882D01*
X75237912Y-67112759D01*
X75237910Y-67112760D01*
X75184086Y-67151866D01*
X75088747Y-67221134D01*
X75084326Y-67226044D01*
X75084325Y-67226045D01*
X75044272Y-67270529D01*
X74960960Y-67363056D01*
X74865473Y-67528444D01*
X74806458Y-67710072D01*
X74786496Y-67900000D01*
X74806458Y-68089928D01*
X74865473Y-68271556D01*
X74960960Y-68436944D01*
X75088747Y-68578866D01*
X75243248Y-68691118D01*
X75249276Y-68693802D01*
X75249278Y-68693803D01*
X75376382Y-68750393D01*
X75417712Y-68768794D01*
X75604513Y-68808500D01*
X75604068Y-68810594D01*
X75660471Y-68833798D01*
X75701103Y-68892018D01*
X75703808Y-68962963D01*
X75667728Y-69024108D01*
X75621523Y-69051621D01*
X75601054Y-69058450D01*
X75450652Y-69151522D01*
X75325695Y-69276697D01*
X75321855Y-69282927D01*
X75321854Y-69282928D01*
X75260021Y-69383240D01*
X75232885Y-69427262D01*
X75177203Y-69595139D01*
X75166500Y-69699600D01*
X75166500Y-70622905D01*
X75146498Y-70691026D01*
X75129595Y-70712001D01*
X74741195Y-71100400D01*
X74357742Y-71483853D01*
X74349463Y-71491387D01*
X74342982Y-71495500D01*
X74296357Y-71545151D01*
X74293602Y-71547993D01*
X74273865Y-71567730D01*
X74271385Y-71570927D01*
X74263682Y-71579947D01*
X74233414Y-71612179D01*
X74229595Y-71619125D01*
X74229593Y-71619128D01*
X74223652Y-71629934D01*
X74212801Y-71646453D01*
X74200386Y-71662459D01*
X74197241Y-71669728D01*
X74197238Y-71669732D01*
X74182826Y-71703037D01*
X74177609Y-71713687D01*
X74156305Y-71752440D01*
X74154334Y-71760115D01*
X74154334Y-71760116D01*
X74151267Y-71772062D01*
X74144863Y-71790766D01*
X74141731Y-71798005D01*
X74136819Y-71809355D01*
X74135580Y-71817178D01*
X74135577Y-71817188D01*
X74129901Y-71853024D01*
X74127495Y-71864644D01*
X74116500Y-71907470D01*
X74116500Y-71927724D01*
X74114949Y-71947434D01*
X74111780Y-71967443D01*
X74112526Y-71975337D01*
X74112526Y-71975338D01*
X74114121Y-71992217D01*
X74114618Y-72000111D01*
X74116438Y-72057986D01*
X74116500Y-72061946D01*
X74116500Y-73465500D01*
X74096498Y-73533621D01*
X74042842Y-73580114D01*
X73990500Y-73591500D01*
X73701866Y-73591500D01*
X73639684Y-73598255D01*
X73503295Y-73649385D01*
X73386739Y-73736739D01*
X73299385Y-73853295D01*
X73248255Y-73989684D01*
X73241500Y-74051866D01*
X73241500Y-77948134D01*
X73248255Y-78010316D01*
X73299385Y-78146705D01*
X73386739Y-78263261D01*
X73503295Y-78350615D01*
X73639684Y-78401745D01*
X73701866Y-78408500D01*
X73990500Y-78408500D01*
X74058621Y-78428502D01*
X74105114Y-78482158D01*
X74116500Y-78534500D01*
X74116500Y-81808726D01*
X74115973Y-81819909D01*
X74114298Y-81827402D01*
X74114547Y-81835328D01*
X74114547Y-81835329D01*
X74116438Y-81895479D01*
X74116500Y-81899438D01*
X74116500Y-81927349D01*
X74116997Y-81931283D01*
X74116997Y-81931284D01*
X74117005Y-81931349D01*
X74117938Y-81943186D01*
X74119327Y-81987382D01*
X74124978Y-82006832D01*
X74128987Y-82026193D01*
X74131526Y-82046290D01*
X74134445Y-82053661D01*
X74134445Y-82053663D01*
X74147804Y-82087405D01*
X74151649Y-82098635D01*
X74163982Y-82141086D01*
X74168015Y-82147905D01*
X74168017Y-82147910D01*
X74174293Y-82158521D01*
X74182988Y-82176269D01*
X74190448Y-82195110D01*
X74195110Y-82201526D01*
X74195110Y-82201527D01*
X74216436Y-82230880D01*
X74222952Y-82240800D01*
X74245458Y-82278855D01*
X74259779Y-82293176D01*
X74272619Y-82308209D01*
X74284528Y-82324600D01*
X74290634Y-82329651D01*
X74318605Y-82352791D01*
X74327384Y-82360781D01*
X75183370Y-83216767D01*
X75190914Y-83225057D01*
X75195027Y-83231538D01*
X75200804Y-83236963D01*
X75244694Y-83278178D01*
X75247536Y-83280933D01*
X75267257Y-83300654D01*
X75270452Y-83303132D01*
X75279474Y-83310838D01*
X75311706Y-83341106D01*
X75318655Y-83344926D01*
X75329459Y-83350866D01*
X75345983Y-83361719D01*
X75361986Y-83374133D01*
X75402570Y-83391696D01*
X75413200Y-83396903D01*
X75451967Y-83418215D01*
X75459644Y-83420186D01*
X75459649Y-83420188D01*
X75471585Y-83423252D01*
X75490293Y-83429657D01*
X75508882Y-83437701D01*
X75516710Y-83438941D01*
X75516717Y-83438943D01*
X75552551Y-83444619D01*
X75564171Y-83447025D01*
X75599316Y-83456048D01*
X75606997Y-83458020D01*
X75627251Y-83458020D01*
X75646961Y-83459571D01*
X75666970Y-83462740D01*
X75674862Y-83461994D01*
X75710988Y-83458579D01*
X75722846Y-83458020D01*
X76458910Y-83458020D01*
X76527031Y-83478022D01*
X76573524Y-83531678D01*
X76583628Y-83601952D01*
X76574547Y-83634061D01*
X76572826Y-83638038D01*
X76567609Y-83648687D01*
X76546305Y-83687440D01*
X76544334Y-83695115D01*
X76544334Y-83695116D01*
X76541267Y-83707062D01*
X76534863Y-83725766D01*
X76526819Y-83744355D01*
X76525580Y-83752178D01*
X76525577Y-83752188D01*
X76519901Y-83788024D01*
X76517495Y-83799644D01*
X76506500Y-83842470D01*
X76506500Y-83862724D01*
X76504949Y-83882434D01*
X76501780Y-83902443D01*
X76502526Y-83910335D01*
X76505941Y-83946461D01*
X76506500Y-83958319D01*
X76506500Y-84576000D01*
X76486498Y-84644121D01*
X76432842Y-84690614D01*
X76380500Y-84702000D01*
X76329866Y-84702000D01*
X76267684Y-84708755D01*
X76131295Y-84759885D01*
X76014739Y-84847239D01*
X75927385Y-84963795D01*
X75876255Y-85100184D01*
X75869500Y-85162366D01*
X75869500Y-86782634D01*
X75876255Y-86844816D01*
X75927385Y-86981205D01*
X76014739Y-87097761D01*
X76018992Y-87100949D01*
X76018993Y-87100950D01*
X76113650Y-87171891D01*
X76131295Y-87185115D01*
X76267684Y-87236245D01*
X76329866Y-87243000D01*
X77950134Y-87243000D01*
X78012316Y-87236245D01*
X78148705Y-87185115D01*
X78265261Y-87097761D01*
X78352615Y-86981205D01*
X78403745Y-86844816D01*
X78407306Y-86812038D01*
X78434549Y-86746476D01*
X78492912Y-86706050D01*
X78563866Y-86703596D01*
X78624884Y-86739892D01*
X78635777Y-86753369D01*
X78663023Y-86792281D01*
X78820219Y-86949477D01*
X78824727Y-86952634D01*
X78824730Y-86952636D01*
X78853523Y-86972797D01*
X78977772Y-87059797D01*
X79022099Y-87115253D01*
X79031500Y-87163009D01*
X79031500Y-87280321D01*
X79014619Y-87343321D01*
X78973076Y-87415276D01*
X78965473Y-87428444D01*
X78906458Y-87610072D01*
X78886496Y-87800000D01*
X78906458Y-87989928D01*
X78965473Y-88171556D01*
X78968776Y-88177278D01*
X78968777Y-88177279D01*
X79002686Y-88236010D01*
X79060960Y-88336944D01*
X79065378Y-88341851D01*
X79065379Y-88341852D01*
X79074409Y-88351881D01*
X79188747Y-88478866D01*
X79343248Y-88591118D01*
X79349276Y-88593802D01*
X79349278Y-88593803D01*
X79511681Y-88666109D01*
X79517712Y-88668794D01*
X79601572Y-88686619D01*
X79698056Y-88707128D01*
X79698061Y-88707128D01*
X79704513Y-88708500D01*
X79895487Y-88708500D01*
X79901939Y-88707128D01*
X79901944Y-88707128D01*
X79998428Y-88686619D01*
X80082288Y-88668794D01*
X80088319Y-88666109D01*
X80250722Y-88593803D01*
X80250724Y-88593802D01*
X80256752Y-88591118D01*
X80411253Y-88478866D01*
X80525591Y-88351881D01*
X80534621Y-88341852D01*
X80534622Y-88341851D01*
X80539040Y-88336944D01*
X80590881Y-88247153D01*
X80642264Y-88198160D01*
X80711977Y-88184724D01*
X80777888Y-88211110D01*
X80809119Y-88247153D01*
X80860960Y-88336944D01*
X80865378Y-88341851D01*
X80865379Y-88341852D01*
X80874409Y-88351881D01*
X80988747Y-88478866D01*
X81143248Y-88591118D01*
X81149276Y-88593802D01*
X81149278Y-88593803D01*
X81311681Y-88666109D01*
X81317712Y-88668794D01*
X81401572Y-88686619D01*
X81498056Y-88707128D01*
X81498061Y-88707128D01*
X81504513Y-88708500D01*
X81695487Y-88708500D01*
X81701939Y-88707128D01*
X81701944Y-88707128D01*
X81798428Y-88686619D01*
X81882288Y-88668794D01*
X81888319Y-88666109D01*
X82050722Y-88593803D01*
X82050724Y-88593802D01*
X82056752Y-88591118D01*
X82211253Y-88478866D01*
X82325591Y-88351881D01*
X82334621Y-88341852D01*
X82334622Y-88341851D01*
X82339040Y-88336944D01*
X82397314Y-88236010D01*
X82431223Y-88177279D01*
X82431224Y-88177278D01*
X82434527Y-88171556D01*
X82493542Y-87989928D01*
X82513504Y-87800000D01*
X82493542Y-87610072D01*
X82434527Y-87428444D01*
X82426925Y-87415276D01*
X82352642Y-87286616D01*
X82339040Y-87263056D01*
X82307852Y-87228419D01*
X82277137Y-87164415D01*
X82285900Y-87093961D01*
X82329219Y-87040898D01*
X82342959Y-87031277D01*
X83445777Y-87031277D01*
X83455074Y-87043293D01*
X83498069Y-87073398D01*
X83507555Y-87078876D01*
X83698993Y-87168145D01*
X83709285Y-87171891D01*
X83913309Y-87226559D01*
X83924104Y-87228462D01*
X84134525Y-87246872D01*
X84145475Y-87246872D01*
X84355896Y-87228462D01*
X84366691Y-87226559D01*
X84570715Y-87171891D01*
X84581007Y-87168145D01*
X84772445Y-87078876D01*
X84781931Y-87073398D01*
X84825764Y-87042707D01*
X84834139Y-87032229D01*
X84827071Y-87018781D01*
X84724176Y-86915886D01*
X85806528Y-86915886D01*
X85812362Y-86925651D01*
X87197190Y-88310480D01*
X87211131Y-88318092D01*
X87212966Y-88317961D01*
X87219580Y-88313710D01*
X88605884Y-86927405D01*
X88613399Y-86913644D01*
X88606941Y-86904284D01*
X88590639Y-86889988D01*
X88584099Y-86884970D01*
X88344856Y-86725113D01*
X88337719Y-86720992D01*
X88079651Y-86593728D01*
X88072047Y-86590578D01*
X87799580Y-86498088D01*
X87791617Y-86495954D01*
X87509400Y-86439817D01*
X87501249Y-86438744D01*
X87214119Y-86419925D01*
X87205881Y-86419925D01*
X86918751Y-86438744D01*
X86910600Y-86439817D01*
X86628383Y-86495954D01*
X86620420Y-86498088D01*
X86347953Y-86590578D01*
X86340349Y-86593728D01*
X86082282Y-86720992D01*
X86075145Y-86725113D01*
X85835901Y-86884970D01*
X85829361Y-86889988D01*
X85814926Y-86902647D01*
X85806528Y-86915886D01*
X84724176Y-86915886D01*
X84152812Y-86344522D01*
X84138868Y-86336908D01*
X84137035Y-86337039D01*
X84130420Y-86341290D01*
X83452207Y-87019503D01*
X83445777Y-87031277D01*
X82342959Y-87031277D01*
X82455270Y-86952636D01*
X82455273Y-86952634D01*
X82459781Y-86949477D01*
X82616977Y-86792281D01*
X82621354Y-86786031D01*
X82741331Y-86614685D01*
X82741332Y-86614683D01*
X82744488Y-86610176D01*
X82746811Y-86605194D01*
X82746814Y-86605189D01*
X82776081Y-86542425D01*
X82822999Y-86489140D01*
X82891276Y-86469679D01*
X82959236Y-86490221D01*
X83004471Y-86542425D01*
X83033623Y-86604941D01*
X83039103Y-86614432D01*
X83069794Y-86658265D01*
X83080271Y-86666640D01*
X83093718Y-86659572D01*
X83767978Y-85985312D01*
X83774356Y-85973632D01*
X84504408Y-85973632D01*
X84504539Y-85975465D01*
X84508790Y-85982080D01*
X85187003Y-86660293D01*
X85198777Y-86666723D01*
X85210793Y-86657426D01*
X85240897Y-86614432D01*
X85246377Y-86604941D01*
X85335645Y-86413507D01*
X85339391Y-86403215D01*
X85394059Y-86199191D01*
X85395962Y-86188396D01*
X85414372Y-85977975D01*
X85414372Y-85967025D01*
X85395962Y-85756604D01*
X85394059Y-85745809D01*
X85339391Y-85541785D01*
X85335645Y-85531493D01*
X85246377Y-85340059D01*
X85240897Y-85330568D01*
X85210206Y-85286735D01*
X85199729Y-85278360D01*
X85186282Y-85285428D01*
X84512022Y-85959688D01*
X84504408Y-85973632D01*
X83774356Y-85973632D01*
X83775592Y-85971368D01*
X83775461Y-85969535D01*
X83771210Y-85962920D01*
X83092997Y-85284707D01*
X83081223Y-85278277D01*
X83069207Y-85287574D01*
X83039103Y-85330568D01*
X83033623Y-85340059D01*
X83004471Y-85402575D01*
X82957553Y-85455860D01*
X82889276Y-85475321D01*
X82821316Y-85454779D01*
X82776081Y-85402575D01*
X82746814Y-85339811D01*
X82746811Y-85339806D01*
X82744488Y-85334824D01*
X82741331Y-85330315D01*
X82620136Y-85157230D01*
X82620134Y-85157227D01*
X82616977Y-85152719D01*
X82459781Y-84995523D01*
X82455273Y-84992366D01*
X82455270Y-84992364D01*
X82379505Y-84939313D01*
X82341599Y-84912771D01*
X83445860Y-84912771D01*
X83452928Y-84926218D01*
X84127188Y-85600478D01*
X84141132Y-85608092D01*
X84142965Y-85607961D01*
X84149580Y-85603710D01*
X84827793Y-84925497D01*
X84834223Y-84913723D01*
X84824926Y-84901707D01*
X84781931Y-84871602D01*
X84772445Y-84866124D01*
X84581007Y-84776855D01*
X84570715Y-84773109D01*
X84366691Y-84718441D01*
X84355896Y-84716538D01*
X84145475Y-84698128D01*
X84134525Y-84698128D01*
X83924104Y-84716538D01*
X83913309Y-84718441D01*
X83709285Y-84773109D01*
X83698993Y-84776855D01*
X83507559Y-84866123D01*
X83498068Y-84871603D01*
X83454235Y-84902294D01*
X83445860Y-84912771D01*
X82341599Y-84912771D01*
X82277677Y-84868012D01*
X82272695Y-84865689D01*
X82272690Y-84865686D01*
X82081178Y-84776383D01*
X82081177Y-84776382D01*
X82076196Y-84774060D01*
X82070888Y-84772638D01*
X82070886Y-84772637D01*
X82005051Y-84754997D01*
X81861463Y-84716522D01*
X81640000Y-84697147D01*
X81418537Y-84716522D01*
X81274949Y-84754997D01*
X81209114Y-84772637D01*
X81209112Y-84772638D01*
X81203804Y-84774060D01*
X81198823Y-84776382D01*
X81198822Y-84776383D01*
X81007311Y-84865686D01*
X81007306Y-84865689D01*
X81002324Y-84868012D01*
X80997817Y-84871168D01*
X80997815Y-84871169D01*
X80824730Y-84992364D01*
X80824727Y-84992366D01*
X80820219Y-84995523D01*
X80729095Y-85086647D01*
X80666783Y-85120673D01*
X80595968Y-85115608D01*
X80550905Y-85086647D01*
X80459781Y-84995523D01*
X80455273Y-84992366D01*
X80455270Y-84992364D01*
X80379505Y-84939313D01*
X80277677Y-84868012D01*
X80272695Y-84865689D01*
X80272690Y-84865686D01*
X80081178Y-84776383D01*
X80081177Y-84776382D01*
X80076196Y-84774060D01*
X80070888Y-84772638D01*
X80070886Y-84772637D01*
X80005051Y-84754997D01*
X79861463Y-84716522D01*
X79640000Y-84697147D01*
X79418537Y-84716522D01*
X79274949Y-84754997D01*
X79209114Y-84772637D01*
X79209112Y-84772638D01*
X79203804Y-84774060D01*
X79198823Y-84776382D01*
X79198822Y-84776383D01*
X79007311Y-84865686D01*
X79007306Y-84865689D01*
X79002324Y-84868012D01*
X78997817Y-84871168D01*
X78997815Y-84871169D01*
X78824730Y-84992364D01*
X78824727Y-84992366D01*
X78820219Y-84995523D01*
X78663023Y-85152719D01*
X78635781Y-85191624D01*
X78580326Y-85235952D01*
X78509707Y-85243262D01*
X78446346Y-85211231D01*
X78410361Y-85150030D01*
X78407306Y-85132962D01*
X78405971Y-85120673D01*
X78403745Y-85100184D01*
X78352615Y-84963795D01*
X78265261Y-84847239D01*
X78148705Y-84759885D01*
X78012316Y-84708755D01*
X77950134Y-84702000D01*
X77899500Y-84702000D01*
X77831379Y-84681998D01*
X77784886Y-84628342D01*
X77773500Y-84576000D01*
X77773500Y-84237094D01*
X77793502Y-84168973D01*
X77810405Y-84147999D01*
X78912999Y-83045405D01*
X78975311Y-83011379D01*
X79002094Y-83008500D01*
X79925400Y-83008500D01*
X79928646Y-83008163D01*
X79928650Y-83008163D01*
X80024308Y-82998238D01*
X80024312Y-82998237D01*
X80031166Y-82997526D01*
X80037702Y-82995345D01*
X80037704Y-82995345D01*
X80191998Y-82943868D01*
X80198946Y-82941550D01*
X80349348Y-82848478D01*
X80474305Y-82723303D01*
X80478146Y-82717072D01*
X80563275Y-82578968D01*
X80563276Y-82578966D01*
X80567115Y-82572738D01*
X80622797Y-82404861D01*
X80633500Y-82300400D01*
X80633500Y-81377095D01*
X80653502Y-81308974D01*
X80670405Y-81287999D01*
X81055500Y-80902905D01*
X81442258Y-80516147D01*
X81450537Y-80508613D01*
X81457018Y-80504500D01*
X81503644Y-80454848D01*
X81506398Y-80452007D01*
X81526135Y-80432270D01*
X81528615Y-80429073D01*
X81536320Y-80420051D01*
X81561159Y-80393600D01*
X81566586Y-80387821D01*
X81570405Y-80380875D01*
X81570407Y-80380872D01*
X81576348Y-80370066D01*
X81587199Y-80353547D01*
X81594758Y-80343801D01*
X81599614Y-80337541D01*
X81602759Y-80330272D01*
X81602762Y-80330268D01*
X81617174Y-80296963D01*
X81622391Y-80286313D01*
X81643695Y-80247560D01*
X81648733Y-80227937D01*
X81655137Y-80209234D01*
X81660033Y-80197920D01*
X81660033Y-80197919D01*
X81663181Y-80190645D01*
X81664420Y-80182822D01*
X81664423Y-80182812D01*
X81670099Y-80146976D01*
X81672505Y-80135355D01*
X81682321Y-80097123D01*
X81718635Y-80036116D01*
X81782167Y-80004427D01*
X81852746Y-80012117D01*
X81893458Y-80039362D01*
X82029595Y-80175499D01*
X82063621Y-80237811D01*
X82066500Y-80264594D01*
X82066500Y-82200400D01*
X82066837Y-82203646D01*
X82066837Y-82203650D01*
X82076752Y-82299206D01*
X82077474Y-82306166D01*
X82079655Y-82312702D01*
X82079655Y-82312704D01*
X82083624Y-82324600D01*
X82133450Y-82473946D01*
X82226522Y-82624348D01*
X82351697Y-82749305D01*
X82357927Y-82753145D01*
X82357928Y-82753146D01*
X82495288Y-82837816D01*
X82502262Y-82842115D01*
X82582005Y-82868564D01*
X82663611Y-82895632D01*
X82663613Y-82895632D01*
X82670139Y-82897797D01*
X82676975Y-82898497D01*
X82676978Y-82898498D01*
X82720031Y-82902909D01*
X82774600Y-82908500D01*
X83700400Y-82908500D01*
X83703646Y-82908163D01*
X83703650Y-82908163D01*
X83799308Y-82898238D01*
X83799312Y-82898237D01*
X83806166Y-82897526D01*
X83812702Y-82895345D01*
X83812704Y-82895345D01*
X83953180Y-82848478D01*
X83973946Y-82841550D01*
X84124348Y-82748478D01*
X84249305Y-82623303D01*
X84342115Y-82472738D01*
X84380646Y-82356570D01*
X84395632Y-82311389D01*
X84395632Y-82311387D01*
X84397797Y-82304861D01*
X84408500Y-82200400D01*
X84408500Y-82197095D01*
X85192001Y-82197095D01*
X85192338Y-82203614D01*
X85202257Y-82299206D01*
X85205149Y-82312600D01*
X85256588Y-82466784D01*
X85262761Y-82479962D01*
X85348063Y-82617807D01*
X85357099Y-82629208D01*
X85471829Y-82743739D01*
X85483240Y-82752751D01*
X85621243Y-82837816D01*
X85634424Y-82843963D01*
X85788710Y-82895138D01*
X85802086Y-82898005D01*
X85896438Y-82907672D01*
X85902854Y-82908000D01*
X86090385Y-82908000D01*
X86105624Y-82903525D01*
X86106829Y-82902135D01*
X86108500Y-82894452D01*
X86108500Y-82889884D01*
X86616500Y-82889884D01*
X86620975Y-82905123D01*
X86622365Y-82906328D01*
X86630048Y-82907999D01*
X86822095Y-82907999D01*
X86828614Y-82907662D01*
X86924206Y-82897743D01*
X86937600Y-82894851D01*
X87091784Y-82843412D01*
X87104962Y-82837239D01*
X87242807Y-82751937D01*
X87254208Y-82742901D01*
X87368739Y-82628171D01*
X87377751Y-82616760D01*
X87462816Y-82478757D01*
X87468963Y-82465576D01*
X87520138Y-82311290D01*
X87523005Y-82297914D01*
X87532672Y-82203562D01*
X87533000Y-82197146D01*
X87533000Y-81322115D01*
X87528525Y-81306876D01*
X87527135Y-81305671D01*
X87519452Y-81304000D01*
X86634615Y-81304000D01*
X86619376Y-81308475D01*
X86618171Y-81309865D01*
X86616500Y-81317548D01*
X86616500Y-82889884D01*
X86108500Y-82889884D01*
X86108500Y-81322115D01*
X86104025Y-81306876D01*
X86102635Y-81305671D01*
X86094952Y-81304000D01*
X85210116Y-81304000D01*
X85194877Y-81308475D01*
X85193672Y-81309865D01*
X85192001Y-81317548D01*
X85192001Y-82197095D01*
X84408500Y-82197095D01*
X84408500Y-80901178D01*
X84428502Y-80833057D01*
X84482158Y-80786564D01*
X84552432Y-80776460D01*
X84560697Y-80777931D01*
X84698056Y-80807128D01*
X84698061Y-80807128D01*
X84704513Y-80808500D01*
X84895487Y-80808500D01*
X84901939Y-80807128D01*
X84901944Y-80807128D01*
X85039302Y-80777931D01*
X85082288Y-80768794D01*
X85082489Y-80769738D01*
X85147606Y-80767881D01*
X85197630Y-80794278D01*
X85205548Y-80796000D01*
X87514884Y-80796000D01*
X87530123Y-80791525D01*
X87531328Y-80790135D01*
X87532999Y-80782452D01*
X87532999Y-79902905D01*
X87532662Y-79896386D01*
X87522743Y-79800794D01*
X87519850Y-79787395D01*
X87511894Y-79763548D01*
X87509309Y-79692598D01*
X87545492Y-79631514D01*
X87608956Y-79599689D01*
X87618418Y-79598343D01*
X87624213Y-79597742D01*
X87637600Y-79594851D01*
X87791784Y-79543412D01*
X87804962Y-79537239D01*
X87942807Y-79451937D01*
X87954208Y-79442901D01*
X88068739Y-79328171D01*
X88077751Y-79316760D01*
X88162816Y-79178757D01*
X88168963Y-79165576D01*
X88220138Y-79011290D01*
X88223005Y-78997914D01*
X88232672Y-78903562D01*
X88233000Y-78897146D01*
X88233000Y-78472115D01*
X88228525Y-78456876D01*
X88227135Y-78455671D01*
X88219452Y-78454000D01*
X85910116Y-78454000D01*
X85894877Y-78458475D01*
X85893672Y-78459865D01*
X85892001Y-78467548D01*
X85892001Y-78897095D01*
X85892338Y-78903614D01*
X85902257Y-78999206D01*
X85905150Y-79012605D01*
X85913106Y-79036452D01*
X85915691Y-79107402D01*
X85879508Y-79168486D01*
X85816044Y-79200311D01*
X85806582Y-79201657D01*
X85800787Y-79202258D01*
X85787400Y-79205149D01*
X85633216Y-79256588D01*
X85613417Y-79265863D01*
X85612061Y-79262968D01*
X85557400Y-79278032D01*
X85489622Y-79256898D01*
X85444030Y-79202475D01*
X85433500Y-79152050D01*
X85433500Y-79141267D01*
X85434027Y-79130084D01*
X85435702Y-79122591D01*
X85433562Y-79054514D01*
X85433500Y-79050555D01*
X85433500Y-79022644D01*
X85432995Y-79018644D01*
X85432062Y-79006801D01*
X85431824Y-78999206D01*
X85430673Y-78962610D01*
X85425022Y-78943158D01*
X85421014Y-78923806D01*
X85419467Y-78911563D01*
X85418474Y-78903703D01*
X85415556Y-78896332D01*
X85402200Y-78862597D01*
X85398355Y-78851370D01*
X85397721Y-78849187D01*
X85386018Y-78808907D01*
X85381984Y-78802085D01*
X85381981Y-78802079D01*
X85375706Y-78791468D01*
X85367010Y-78773718D01*
X85362472Y-78762256D01*
X85362469Y-78762251D01*
X85359552Y-78754883D01*
X85333573Y-78719125D01*
X85327061Y-78709213D01*
X85319077Y-78695715D01*
X85301612Y-78626900D01*
X85324125Y-78559567D01*
X85338431Y-78542473D01*
X85897999Y-77982905D01*
X85960311Y-77948879D01*
X85987094Y-77946000D01*
X88214884Y-77946000D01*
X88230123Y-77941525D01*
X88231328Y-77940135D01*
X88232999Y-77932452D01*
X88232999Y-77502905D01*
X88232662Y-77496386D01*
X88222743Y-77400794D01*
X88219851Y-77387400D01*
X88168412Y-77233216D01*
X88162238Y-77220037D01*
X88088947Y-77101600D01*
X88070109Y-77033148D01*
X88088831Y-76969181D01*
X88138275Y-76888968D01*
X88138276Y-76888966D01*
X88142115Y-76882738D01*
X88169140Y-76801260D01*
X88195632Y-76721389D01*
X88195632Y-76721387D01*
X88197797Y-76714861D01*
X88208500Y-76610400D01*
X88208500Y-75259600D01*
X88208163Y-75256350D01*
X88198238Y-75160692D01*
X88198237Y-75160688D01*
X88197526Y-75153834D01*
X88141550Y-74986054D01*
X88048478Y-74835652D01*
X87923303Y-74710695D01*
X87817382Y-74645404D01*
X87778968Y-74621725D01*
X87778966Y-74621724D01*
X87772738Y-74617885D01*
X87765791Y-74615581D01*
X87759156Y-74612487D01*
X87760199Y-74610251D01*
X87711462Y-74576477D01*
X87684234Y-74510909D01*
X87683500Y-74497328D01*
X87683500Y-71716267D01*
X87684027Y-71705084D01*
X87685702Y-71697591D01*
X87684827Y-71669732D01*
X87683562Y-71629501D01*
X87683500Y-71625543D01*
X87683500Y-71597644D01*
X87682996Y-71593653D01*
X87682063Y-71581811D01*
X87682005Y-71579949D01*
X87680674Y-71537611D01*
X87678462Y-71529997D01*
X87678461Y-71529992D01*
X87675023Y-71518159D01*
X87671012Y-71498795D01*
X87669467Y-71486564D01*
X87668474Y-71478703D01*
X87665557Y-71471336D01*
X87665556Y-71471331D01*
X87652198Y-71437592D01*
X87648354Y-71426365D01*
X87638230Y-71391522D01*
X87636018Y-71383907D01*
X87629413Y-71372738D01*
X87625707Y-71366472D01*
X87617012Y-71348724D01*
X87609552Y-71329883D01*
X87583564Y-71294113D01*
X87577048Y-71284193D01*
X87554542Y-71246138D01*
X87556188Y-71245164D01*
X87533993Y-71188629D01*
X87533500Y-71177492D01*
X87533500Y-69799600D01*
X87533163Y-69796350D01*
X87523238Y-69700692D01*
X87523237Y-69700688D01*
X87522526Y-69693834D01*
X87466550Y-69526054D01*
X87373478Y-69375652D01*
X87248303Y-69250695D01*
X87242072Y-69246854D01*
X87103968Y-69161725D01*
X87103966Y-69161724D01*
X87097738Y-69157885D01*
X87090789Y-69155580D01*
X87082330Y-69152774D01*
X87023971Y-69112342D01*
X86996736Y-69046777D01*
X86996000Y-69033182D01*
X86996000Y-67441267D01*
X86996527Y-67430084D01*
X86998202Y-67422591D01*
X86996062Y-67354514D01*
X86996000Y-67350555D01*
X86996000Y-67322644D01*
X86995495Y-67318644D01*
X86994562Y-67306801D01*
X86993422Y-67270529D01*
X86993173Y-67262610D01*
X86987522Y-67243158D01*
X86983514Y-67223806D01*
X86981967Y-67211563D01*
X86980974Y-67203703D01*
X86978056Y-67196332D01*
X86964700Y-67162597D01*
X86960855Y-67151370D01*
X86960012Y-67148469D01*
X86948518Y-67108907D01*
X86944484Y-67102085D01*
X86944481Y-67102079D01*
X86938206Y-67091468D01*
X86929510Y-67073718D01*
X86924972Y-67062256D01*
X86924969Y-67062251D01*
X86922052Y-67054883D01*
X86896073Y-67019125D01*
X86889557Y-67009207D01*
X86871075Y-66977957D01*
X86867042Y-66971137D01*
X86852718Y-66956813D01*
X86839876Y-66941778D01*
X86827972Y-66925393D01*
X86793906Y-66897211D01*
X86785127Y-66889222D01*
X85719500Y-65823595D01*
X85685474Y-65761283D01*
X85690539Y-65690468D01*
X85733086Y-65633632D01*
X85799606Y-65608821D01*
X85808595Y-65608500D01*
X85895487Y-65608500D01*
X85901939Y-65607128D01*
X85901944Y-65607128D01*
X85988888Y-65588647D01*
X86082288Y-65568794D01*
X86095176Y-65563056D01*
X86250722Y-65493803D01*
X86250724Y-65493802D01*
X86256752Y-65491118D01*
X86411253Y-65378866D01*
X86432138Y-65355671D01*
X86534621Y-65241852D01*
X86534622Y-65241851D01*
X86539040Y-65236944D01*
X86634527Y-65071556D01*
X86693542Y-64889928D01*
X86698776Y-64840135D01*
X86712814Y-64706565D01*
X86713504Y-64700000D01*
X86711654Y-64682394D01*
X86694232Y-64516635D01*
X86694232Y-64516633D01*
X86693542Y-64510072D01*
X86634527Y-64328444D01*
X86539040Y-64163056D01*
X86411253Y-64021134D01*
X86256752Y-63908882D01*
X86254674Y-63907957D01*
X86206788Y-63857733D01*
X86193354Y-63788019D01*
X86219743Y-63722109D01*
X86254195Y-63692256D01*
X86256752Y-63691118D01*
X86411253Y-63578866D01*
X86539040Y-63436944D01*
X86634527Y-63271556D01*
X86693542Y-63089928D01*
X86696046Y-63066109D01*
X86712814Y-62906565D01*
X86713504Y-62900000D01*
X86710767Y-62873955D01*
X86694233Y-62716642D01*
X86694232Y-62716638D01*
X86693542Y-62710072D01*
X86662874Y-62615686D01*
X86660846Y-62544720D01*
X86689071Y-62492440D01*
X86734621Y-62441852D01*
X86734622Y-62441851D01*
X86739040Y-62436944D01*
X86834527Y-62271556D01*
X86893542Y-62089928D01*
X86894694Y-62078973D01*
X86912814Y-61906565D01*
X86913504Y-61900000D01*
X86909344Y-61860417D01*
X86894232Y-61716635D01*
X86894232Y-61716633D01*
X86893542Y-61710072D01*
X86834527Y-61528444D01*
X86818927Y-61501424D01*
X86802188Y-61432429D01*
X86825408Y-61365337D01*
X86861739Y-61331280D01*
X86874348Y-61323478D01*
X86999305Y-61198303D01*
X87092115Y-61047738D01*
X87147797Y-60879861D01*
X87158500Y-60775400D01*
X87158500Y-59424600D01*
X87150449Y-59347003D01*
X87163314Y-59277182D01*
X87211885Y-59225400D01*
X87275776Y-59208000D01*
X89556000Y-59208000D01*
X89624121Y-59228002D01*
X89670614Y-59281658D01*
X89682000Y-59334000D01*
X89682000Y-88256657D01*
X89661998Y-88324778D01*
X89608342Y-88371271D01*
X89538068Y-88381375D01*
X89473488Y-88351881D01*
X89435104Y-88292155D01*
X89432421Y-88281239D01*
X89396546Y-88100883D01*
X89394412Y-88092920D01*
X89301922Y-87820453D01*
X89298772Y-87812849D01*
X89171508Y-87554782D01*
X89167387Y-87547645D01*
X89007530Y-87308401D01*
X89002512Y-87301861D01*
X88989853Y-87287426D01*
X88976614Y-87279028D01*
X88966849Y-87284862D01*
X87569210Y-88682500D01*
X87299095Y-88952615D01*
X87236783Y-88986641D01*
X87165967Y-88981576D01*
X87120905Y-88952615D01*
X86850790Y-88682500D01*
X85454905Y-87286616D01*
X85441144Y-87279102D01*
X85431783Y-87285560D01*
X85417488Y-87301861D01*
X85412470Y-87308401D01*
X85252613Y-87547645D01*
X85248492Y-87554782D01*
X85121228Y-87812849D01*
X85118078Y-87820453D01*
X85025588Y-88092920D01*
X85023454Y-88100883D01*
X84967317Y-88383100D01*
X84966244Y-88391251D01*
X84947425Y-88678381D01*
X84947425Y-88686619D01*
X84966244Y-88973749D01*
X84967317Y-88981900D01*
X85023454Y-89264117D01*
X85025588Y-89272080D01*
X85118078Y-89544547D01*
X85121228Y-89552151D01*
X85248492Y-89810218D01*
X85252613Y-89817355D01*
X85412472Y-90056602D01*
X85417489Y-90063141D01*
X85434837Y-90082923D01*
X85464714Y-90147327D01*
X85455028Y-90217660D01*
X85408855Y-90271591D01*
X85340105Y-90292000D01*
X75939895Y-90292000D01*
X75871774Y-90271998D01*
X75825281Y-90218342D01*
X75815177Y-90148068D01*
X75845163Y-90082923D01*
X75862511Y-90063141D01*
X75867528Y-90056602D01*
X76027387Y-89817355D01*
X76031508Y-89810218D01*
X76158772Y-89552151D01*
X76161922Y-89544547D01*
X76254412Y-89272080D01*
X76256546Y-89264117D01*
X76312683Y-88981900D01*
X76313756Y-88973749D01*
X76332575Y-88686619D01*
X76332575Y-88678381D01*
X76313756Y-88391251D01*
X76312683Y-88383100D01*
X76256546Y-88100883D01*
X76254412Y-88092920D01*
X76161922Y-87820453D01*
X76158772Y-87812849D01*
X76031508Y-87554782D01*
X76027387Y-87547645D01*
X75867530Y-87308401D01*
X75862518Y-87301869D01*
X75849850Y-87287424D01*
X75836614Y-87279028D01*
X75826849Y-87284862D01*
X74159095Y-88952615D01*
X74096783Y-88986641D01*
X74025967Y-88981576D01*
X73980905Y-88952615D01*
X72314905Y-87286616D01*
X72301144Y-87279101D01*
X72291784Y-87285559D01*
X72277488Y-87301861D01*
X72272470Y-87308401D01*
X72112613Y-87547645D01*
X72108492Y-87554782D01*
X71981228Y-87812849D01*
X71978078Y-87820453D01*
X71885588Y-88092920D01*
X71883454Y-88100883D01*
X71847579Y-88281239D01*
X71814671Y-88344148D01*
X71752976Y-88379280D01*
X71682081Y-88375480D01*
X71624495Y-88333954D01*
X71598501Y-88267887D01*
X71598000Y-88256657D01*
X71598000Y-86915886D01*
X72666528Y-86915886D01*
X72672362Y-86925651D01*
X74057190Y-88310480D01*
X74071131Y-88318092D01*
X74072966Y-88317961D01*
X74079580Y-88313710D01*
X75465884Y-86927405D01*
X75473399Y-86913644D01*
X75466941Y-86904284D01*
X75450639Y-86889988D01*
X75444099Y-86884970D01*
X75204856Y-86725113D01*
X75197719Y-86720992D01*
X74939651Y-86593728D01*
X74932047Y-86590578D01*
X74659580Y-86498088D01*
X74651617Y-86495954D01*
X74369400Y-86439817D01*
X74361249Y-86438744D01*
X74074119Y-86419925D01*
X74065881Y-86419925D01*
X73778751Y-86438744D01*
X73770600Y-86439817D01*
X73488383Y-86495954D01*
X73480420Y-86498088D01*
X73207953Y-86590578D01*
X73200349Y-86593728D01*
X72942282Y-86720992D01*
X72935145Y-86725113D01*
X72695901Y-86884970D01*
X72689361Y-86889988D01*
X72674926Y-86902647D01*
X72666528Y-86915886D01*
X71598000Y-86915886D01*
X71598000Y-59334000D01*
X71618002Y-59265879D01*
X71671658Y-59219386D01*
X71724000Y-59208000D01*
X73224123Y-59208000D01*
X73292244Y-59228002D01*
G37*
%TD.AperFunction*%
%TA.AperFunction,Conductor*%
G36*
X81692748Y-59228002D02*
G01*
X81739241Y-59281658D01*
X81749971Y-59346843D01*
X81742328Y-59421440D01*
X81742000Y-59427855D01*
X81742000Y-59827885D01*
X81746475Y-59843124D01*
X81747865Y-59844329D01*
X81755548Y-59846000D01*
X84039884Y-59846000D01*
X84055123Y-59841525D01*
X84056328Y-59840135D01*
X84057999Y-59832452D01*
X84057999Y-59427905D01*
X84057662Y-59421386D01*
X84049944Y-59347003D01*
X84062809Y-59277182D01*
X84111380Y-59225400D01*
X84175271Y-59208000D01*
X84724123Y-59208000D01*
X84792244Y-59228002D01*
X84838737Y-59281658D01*
X84849467Y-59346843D01*
X84841500Y-59424600D01*
X84841500Y-60775400D01*
X84841837Y-60778646D01*
X84841837Y-60778650D01*
X84851752Y-60874206D01*
X84852474Y-60881166D01*
X84908450Y-61048946D01*
X85001522Y-61199348D01*
X85006704Y-61204521D01*
X85068451Y-61266161D01*
X85126697Y-61324305D01*
X85132927Y-61328145D01*
X85132928Y-61328146D01*
X85138006Y-61331276D01*
X85185499Y-61384048D01*
X85196923Y-61454120D01*
X85181009Y-61501535D01*
X85165473Y-61528444D01*
X85106458Y-61710072D01*
X85105768Y-61716633D01*
X85105768Y-61716635D01*
X85090656Y-61860417D01*
X85086496Y-61900000D01*
X85087186Y-61906565D01*
X85087186Y-61906568D01*
X85089368Y-61927331D01*
X85076595Y-61997169D01*
X85028092Y-62049015D01*
X84964058Y-62066500D01*
X84843413Y-62066500D01*
X84775292Y-62046498D01*
X84763380Y-62036898D01*
X84763261Y-62036739D01*
X84756082Y-62031358D01*
X84693605Y-61984535D01*
X84646705Y-61949385D01*
X84510316Y-61898255D01*
X84448134Y-61891500D01*
X82151866Y-61891500D01*
X82089684Y-61898255D01*
X81953295Y-61949385D01*
X81836739Y-62036739D01*
X81749385Y-62153295D01*
X81698255Y-62289684D01*
X81691500Y-62351866D01*
X81691500Y-63048134D01*
X81691869Y-63051531D01*
X81695205Y-63082239D01*
X81682677Y-63152122D01*
X81634356Y-63204137D01*
X81565585Y-63221772D01*
X81498196Y-63199426D01*
X81480847Y-63184942D01*
X80603652Y-62307747D01*
X80596112Y-62299461D01*
X80592000Y-62292982D01*
X80542348Y-62246356D01*
X80539507Y-62243602D01*
X80519770Y-62223865D01*
X80516573Y-62221385D01*
X80507551Y-62213680D01*
X80481100Y-62188841D01*
X80475321Y-62183414D01*
X80468375Y-62179595D01*
X80468372Y-62179593D01*
X80457566Y-62173652D01*
X80441047Y-62162801D01*
X80439631Y-62161703D01*
X80425041Y-62150386D01*
X80417772Y-62147241D01*
X80417768Y-62147238D01*
X80384463Y-62132826D01*
X80373813Y-62127609D01*
X80335060Y-62106305D01*
X80315437Y-62101267D01*
X80296734Y-62094863D01*
X80285420Y-62089967D01*
X80285419Y-62089967D01*
X80278145Y-62086819D01*
X80270322Y-62085580D01*
X80270312Y-62085577D01*
X80234476Y-62079901D01*
X80222856Y-62077495D01*
X80187711Y-62068472D01*
X80187710Y-62068472D01*
X80180030Y-62066500D01*
X80159776Y-62066500D01*
X80140065Y-62064949D01*
X80127886Y-62063020D01*
X80120057Y-62061780D01*
X80112165Y-62062526D01*
X80076039Y-62065941D01*
X80064181Y-62066500D01*
X79643413Y-62066500D01*
X79575292Y-62046498D01*
X79563380Y-62036898D01*
X79563261Y-62036739D01*
X79556082Y-62031358D01*
X79493605Y-61984535D01*
X79446705Y-61949385D01*
X79310316Y-61898255D01*
X79248134Y-61891500D01*
X78859500Y-61891500D01*
X78791379Y-61871498D01*
X78744886Y-61817842D01*
X78733500Y-61765500D01*
X78733500Y-60943316D01*
X78739907Y-60903649D01*
X78745632Y-60886389D01*
X78745632Y-60886387D01*
X78747797Y-60879861D01*
X78758500Y-60775400D01*
X78758500Y-60772095D01*
X81742001Y-60772095D01*
X81742338Y-60778614D01*
X81752257Y-60874206D01*
X81755149Y-60887600D01*
X81806588Y-61041784D01*
X81812761Y-61054962D01*
X81898063Y-61192807D01*
X81907099Y-61204208D01*
X82021829Y-61318739D01*
X82033240Y-61327751D01*
X82171243Y-61412816D01*
X82184424Y-61418963D01*
X82338710Y-61470138D01*
X82352086Y-61473005D01*
X82446438Y-61482672D01*
X82452854Y-61483000D01*
X82627885Y-61483000D01*
X82643124Y-61478525D01*
X82644329Y-61477135D01*
X82646000Y-61469452D01*
X82646000Y-61464884D01*
X83154000Y-61464884D01*
X83158475Y-61480123D01*
X83159865Y-61481328D01*
X83167548Y-61482999D01*
X83347095Y-61482999D01*
X83353614Y-61482662D01*
X83449206Y-61472743D01*
X83462600Y-61469851D01*
X83616784Y-61418412D01*
X83629962Y-61412239D01*
X83767807Y-61326937D01*
X83779208Y-61317901D01*
X83893739Y-61203171D01*
X83902751Y-61191760D01*
X83987816Y-61053757D01*
X83993963Y-61040576D01*
X84045138Y-60886290D01*
X84048005Y-60872914D01*
X84057672Y-60778562D01*
X84058000Y-60772146D01*
X84058000Y-60372115D01*
X84053525Y-60356876D01*
X84052135Y-60355671D01*
X84044452Y-60354000D01*
X83172115Y-60354000D01*
X83156876Y-60358475D01*
X83155671Y-60359865D01*
X83154000Y-60367548D01*
X83154000Y-61464884D01*
X82646000Y-61464884D01*
X82646000Y-60372115D01*
X82641525Y-60356876D01*
X82640135Y-60355671D01*
X82632452Y-60354000D01*
X81760116Y-60354000D01*
X81744877Y-60358475D01*
X81743672Y-60359865D01*
X81742001Y-60367548D01*
X81742001Y-60772095D01*
X78758500Y-60772095D01*
X78758500Y-59424600D01*
X78750449Y-59347003D01*
X78763314Y-59277182D01*
X78811885Y-59225400D01*
X78875776Y-59208000D01*
X81624627Y-59208000D01*
X81692748Y-59228002D01*
G37*
%TD.AperFunction*%
%TD*%
M02*
