%TF.GenerationSoftware,KiCad,Pcbnew,(6.0.2)*%
%TF.CreationDate,2022-03-14T21:43:20-03:00*%
%TF.ProjectId,9_axis_double,395f6178-6973-45f6-946f-75626c652e6b,rev?*%
%TF.SameCoordinates,Original*%
%TF.FileFunction,Copper,L1,Top*%
%TF.FilePolarity,Positive*%
%FSLAX46Y46*%
G04 Gerber Fmt 4.6, Leading zero omitted, Abs format (unit mm)*
G04 Created by KiCad (PCBNEW (6.0.2)) date 2022-03-14 21:43:20*
%MOMM*%
%LPD*%
G01*
G04 APERTURE LIST*
G04 Aperture macros list*
%AMRoundRect*
0 Rectangle with rounded corners*
0 $1 Rounding radius*
0 $2 $3 $4 $5 $6 $7 $8 $9 X,Y pos of 4 corners*
0 Add a 4 corners polygon primitive as box body*
4,1,4,$2,$3,$4,$5,$6,$7,$8,$9,$2,$3,0*
0 Add four circle primitives for the rounded corners*
1,1,$1+$1,$2,$3*
1,1,$1+$1,$4,$5*
1,1,$1+$1,$6,$7*
1,1,$1+$1,$8,$9*
0 Add four rect primitives between the rounded corners*
20,1,$1+$1,$2,$3,$4,$5,0*
20,1,$1+$1,$4,$5,$6,$7,0*
20,1,$1+$1,$6,$7,$8,$9,0*
20,1,$1+$1,$8,$9,$2,$3,0*%
G04 Aperture macros list end*
%TA.AperFunction,SMDPad,CuDef*%
%ADD10R,2.500000X1.000000*%
%TD*%
%TA.AperFunction,SMDPad,CuDef*%
%ADD11R,1.000000X1.800000*%
%TD*%
%TA.AperFunction,SMDPad,CuDef*%
%ADD12R,2.298700X1.597660*%
%TD*%
%TA.AperFunction,SMDPad,CuDef*%
%ADD13RoundRect,0.250000X-0.400000X-0.625000X0.400000X-0.625000X0.400000X0.625000X-0.400000X0.625000X0*%
%TD*%
%TA.AperFunction,ComponentPad*%
%ADD14R,1.524000X1.524000*%
%TD*%
%TA.AperFunction,ComponentPad*%
%ADD15C,1.524000*%
%TD*%
%TA.AperFunction,ComponentPad*%
%ADD16C,3.500000*%
%TD*%
%TA.AperFunction,ViaPad*%
%ADD17C,0.800000*%
%TD*%
%TA.AperFunction,Conductor*%
%ADD18C,0.200000*%
%TD*%
%TA.AperFunction,Conductor*%
%ADD19C,0.250000*%
%TD*%
G04 APERTURE END LIST*
D10*
%TO.P,U5,1,~{RST}*%
%TO.N,uC_reset*%
X73040000Y-59950000D03*
%TO.P,U5,2,ADC*%
%TO.N,unconnected-(U5-Pad2)*%
X73040000Y-61950000D03*
%TO.P,U5,3,EN*%
%TO.N,Net-(R11-Pad2)*%
X73040000Y-63950000D03*
%TO.P,U5,4,GPIO16*%
%TO.N,unconnected-(U5-Pad4)*%
X73040000Y-65950000D03*
%TO.P,U5,5,GPIO14*%
%TO.N,unconnected-(U5-Pad5)*%
X73040000Y-67950000D03*
%TO.P,U5,6,GPIO12*%
%TO.N,unconnected-(U5-Pad6)*%
X73040000Y-69950000D03*
%TO.P,U5,7,GPIO13*%
%TO.N,unconnected-(U5-Pad7)*%
X73040000Y-71950000D03*
%TO.P,U5,8,VCC*%
%TO.N,+3V3*%
X73040000Y-73950000D03*
D11*
%TO.P,U5,9,CS0*%
%TO.N,unconnected-(U5-Pad9)*%
X75640000Y-75450000D03*
%TO.P,U5,10,MISO*%
%TO.N,unconnected-(U5-Pad10)*%
X77640000Y-75450000D03*
%TO.P,U5,11,GPIO9*%
%TO.N,Net-(R1-Pad2)*%
X79640000Y-75450000D03*
%TO.P,U5,12,GPIO10*%
%TO.N,unconnected-(U5-Pad12)*%
X81640000Y-75450000D03*
%TO.P,U5,13,MOSI*%
%TO.N,unconnected-(U5-Pad13)*%
X83640000Y-75450000D03*
%TO.P,U5,14,SCLK*%
%TO.N,unconnected-(U5-Pad14)*%
X85640000Y-75450000D03*
D10*
%TO.P,U5,15,GND*%
%TO.N,GND*%
X88240000Y-73950000D03*
%TO.P,U5,16,GPIO15*%
%TO.N,Net-(R2-Pad1)*%
X88240000Y-71950000D03*
%TO.P,U5,17,GPIO2*%
%TO.N,unconnected-(U5-Pad17)*%
X88240000Y-69950000D03*
%TO.P,U5,18,GPIO0*%
%TO.N,uC_boot*%
X88240000Y-67950000D03*
%TO.P,U5,19,GPIO4*%
%TO.N,unconnected-(U5-Pad19)*%
X88240000Y-65950000D03*
%TO.P,U5,20,GPIO5*%
%TO.N,unconnected-(U5-Pad20)*%
X88240000Y-63950000D03*
%TO.P,U5,21,GPIO3/RXD*%
%TO.N,uC_RX*%
X88240000Y-61950000D03*
%TO.P,U5,22,GPIO1/TXD*%
%TO.N,uC_TX*%
X88240000Y-59950000D03*
%TD*%
D12*
%TO.P,SW2,1,1*%
%TO.N,GND*%
X78840000Y-78800000D03*
%TO.P,SW2,2,2*%
%TO.N,uC_reset*%
X72540800Y-78800000D03*
%TD*%
%TO.P,SW1,1,1*%
%TO.N,GND*%
X82440000Y-78800000D03*
%TO.P,SW1,2,2*%
%TO.N,uC_boot*%
X88739200Y-78800000D03*
%TD*%
D13*
%TO.P,R12,2*%
%TO.N,uC_reset*%
X77450000Y-81800000D03*
%TO.P,R12,1*%
%TO.N,+3V3*%
X74350000Y-81800000D03*
%TD*%
%TO.P,R10,2*%
%TO.N,uC_boot*%
X86750000Y-81800000D03*
%TO.P,R10,1*%
%TO.N,+3V3*%
X83650000Y-81800000D03*
%TD*%
D14*
%TO.P,J1,1,VBUS*%
%TO.N,+5V*%
X77140000Y-85972500D03*
D15*
%TO.P,J1,2,D-*%
%TO.N,D-*%
X79640000Y-85972500D03*
%TO.P,J1,3,D+*%
%TO.N,D+*%
X81640000Y-85972500D03*
%TO.P,J1,4,GND*%
%TO.N,GND*%
X84140000Y-85972500D03*
D16*
%TO.P,J1,5,Shield*%
X87210000Y-88682500D03*
X74070000Y-88682500D03*
%TD*%
D17*
%TO.N,+3V3*%
X84800000Y-79900000D03*
%TO.N,GND*%
X81800000Y-80500000D03*
X89000000Y-75700000D03*
%TO.N,+3V3*%
X75800000Y-73100000D03*
%TO.N,Net-(R1-Pad2)*%
X85200000Y-73700000D03*
%TO.N,uC_RX*%
X85800000Y-62900000D03*
%TO.N,uC_TX*%
X85800000Y-64700000D03*
%TO.N,Net-(R11-Pad2)*%
X75100000Y-62200000D03*
%TO.N,Net-(R2-Pad1)*%
X86000000Y-61900000D03*
%TO.N,D+*%
X75700000Y-67900000D03*
%TO.N,D-*%
X75700000Y-66100000D03*
%TO.N,D+*%
X81600000Y-87800000D03*
%TO.N,D-*%
X79800000Y-87800000D03*
%TD*%
D18*
%TO.N,D+*%
X81600000Y-87800000D02*
X81600000Y-82047862D01*
X78439511Y-70639511D02*
X75700000Y-67900000D01*
X81600000Y-82047862D02*
X83888861Y-79759001D01*
X83888861Y-79759001D02*
X83888861Y-77849350D01*
X83888861Y-77849350D02*
X82689022Y-76649511D01*
X82689022Y-76649511D02*
X78989022Y-76649511D01*
X78989022Y-76649511D02*
X78439511Y-76100000D01*
X78439511Y-76100000D02*
X78439511Y-70639511D01*
%TO.N,D-*%
X79800000Y-87800000D02*
X79800000Y-82347862D01*
X76499511Y-79047373D02*
X76499511Y-69688770D01*
X79800000Y-82347862D02*
X76499511Y-79047373D01*
X76499511Y-69688770D02*
X75000000Y-68189259D01*
X75000000Y-68189259D02*
X75000000Y-66800000D01*
X75000000Y-66800000D02*
X75700000Y-66100000D01*
D19*
%TO.N,+3V3*%
X83650000Y-81800000D02*
X83650000Y-81050000D01*
X83650000Y-81050000D02*
X84800000Y-79900000D01*
%TO.N,GND*%
X89000000Y-75700000D02*
X89000000Y-74710000D01*
X89000000Y-74710000D02*
X88240000Y-73950000D01*
X82440000Y-78800000D02*
X82440000Y-79860000D01*
X82440000Y-79860000D02*
X81800000Y-80500000D01*
%TO.N,uC_reset*%
X71400000Y-60840000D02*
X71400000Y-76200000D01*
X72540800Y-77340800D02*
X72540800Y-78800000D01*
X72290000Y-59950000D02*
X71400000Y-60840000D01*
X73040000Y-59950000D02*
X72290000Y-59950000D01*
X71400000Y-76200000D02*
X72540800Y-77340800D01*
%TO.N,uC_boot*%
X88240000Y-67950000D02*
X87490000Y-67950000D01*
X87490000Y-67950000D02*
X86665489Y-68774511D01*
X86665489Y-68774511D02*
X86665489Y-76726289D01*
X86665489Y-76726289D02*
X88739200Y-78800000D01*
X86750000Y-81800000D02*
X86750000Y-80789200D01*
X86750000Y-80789200D02*
X88739200Y-78800000D01*
%TO.N,uC_reset*%
X77450000Y-81800000D02*
X76250480Y-82999520D01*
X76250480Y-82999520D02*
X73599520Y-82999520D01*
X73599520Y-82999520D02*
X72540800Y-81940800D01*
X72540800Y-81940800D02*
X72540800Y-78800000D01*
%TO.N,+3V3*%
X74350000Y-81800000D02*
X74350000Y-77250000D01*
X74350000Y-77250000D02*
X73040000Y-75940000D01*
X73040000Y-75940000D02*
X73040000Y-73950000D01*
%TO.N,GND*%
X78840000Y-78800000D02*
X82440000Y-78800000D01*
%TO.N,Net-(R1-Pad2)*%
X85200000Y-73700000D02*
X81390000Y-73700000D01*
X81390000Y-73700000D02*
X79640000Y-75450000D01*
%TO.N,+3V3*%
X75800000Y-73100000D02*
X74950000Y-73950000D01*
X74950000Y-73950000D02*
X73040000Y-73950000D01*
%TO.N,Net-(R11-Pad2)*%
X75100000Y-62200000D02*
X73350000Y-63950000D01*
X73350000Y-63950000D02*
X73040000Y-63950000D01*
%TO.N,Net-(R2-Pad1)*%
X86000000Y-61900000D02*
X86774511Y-61125489D01*
X86774511Y-61125489D02*
X89625489Y-61125489D01*
X89625489Y-61125489D02*
X89814511Y-61314511D01*
X89814511Y-61314511D02*
X89814511Y-71585489D01*
X89814511Y-71585489D02*
X89450000Y-71950000D01*
X89450000Y-71950000D02*
X88240000Y-71950000D01*
%TO.N,uC_TX*%
X85800000Y-64700000D02*
X85075489Y-63975489D01*
X85075489Y-61799897D02*
X86925386Y-59950000D01*
X85075489Y-63975489D02*
X85075489Y-61799897D01*
X86925386Y-59950000D02*
X88240000Y-59950000D01*
%TO.N,uC_RX*%
X85800000Y-62900000D02*
X87290000Y-62900000D01*
X87290000Y-62900000D02*
X88240000Y-61950000D01*
%TD*%
%TA.AperFunction,Conductor*%
%TO.N,GND*%
G36*
X84729145Y-76651861D02*
G01*
X84740817Y-76665330D01*
X84776739Y-76713261D01*
X84893295Y-76800615D01*
X85029684Y-76851745D01*
X85091866Y-76858500D01*
X85949603Y-76858500D01*
X86017724Y-76878502D01*
X86064217Y-76932158D01*
X86070600Y-76949347D01*
X86079471Y-76979882D01*
X86083504Y-76986701D01*
X86083506Y-76986706D01*
X86089782Y-76997317D01*
X86098477Y-77015065D01*
X86105937Y-77033906D01*
X86110599Y-77040322D01*
X86110599Y-77040323D01*
X86131925Y-77069676D01*
X86138441Y-77079596D01*
X86155232Y-77107987D01*
X86160947Y-77117651D01*
X86175268Y-77131972D01*
X86188108Y-77147005D01*
X86200017Y-77163396D01*
X86225159Y-77184195D01*
X86234094Y-77191587D01*
X86242873Y-77199577D01*
X87044445Y-78001149D01*
X87078471Y-78063461D01*
X87081350Y-78090244D01*
X87081350Y-79509755D01*
X87061348Y-79577876D01*
X87044445Y-79598850D01*
X86357747Y-80285548D01*
X86349461Y-80293088D01*
X86342982Y-80297200D01*
X86337557Y-80302977D01*
X86296357Y-80346851D01*
X86293602Y-80349693D01*
X86273865Y-80369430D01*
X86271385Y-80372627D01*
X86263688Y-80381640D01*
X86260387Y-80385156D01*
X86253436Y-80392558D01*
X86193496Y-80426460D01*
X86193834Y-80427474D01*
X86187301Y-80429654D01*
X86187299Y-80429654D01*
X86055260Y-80473706D01*
X86026054Y-80483450D01*
X85875652Y-80576522D01*
X85750695Y-80701697D01*
X85746855Y-80707927D01*
X85746854Y-80707928D01*
X85704380Y-80776834D01*
X85657885Y-80852262D01*
X85655581Y-80859209D01*
X85604805Y-81012295D01*
X85602203Y-81020139D01*
X85591500Y-81124600D01*
X85591500Y-82475400D01*
X85591837Y-82478646D01*
X85591837Y-82478650D01*
X85600590Y-82563006D01*
X85602474Y-82581166D01*
X85658450Y-82748946D01*
X85751522Y-82899348D01*
X85876697Y-83024305D01*
X85882927Y-83028145D01*
X85882928Y-83028146D01*
X86020090Y-83112694D01*
X86027262Y-83117115D01*
X86107005Y-83143564D01*
X86188611Y-83170632D01*
X86188613Y-83170632D01*
X86195139Y-83172797D01*
X86201975Y-83173497D01*
X86201978Y-83173498D01*
X86245031Y-83177909D01*
X86299600Y-83183500D01*
X87200400Y-83183500D01*
X87203646Y-83183163D01*
X87203650Y-83183163D01*
X87299308Y-83173238D01*
X87299312Y-83173237D01*
X87306166Y-83172526D01*
X87312702Y-83170345D01*
X87312704Y-83170345D01*
X87444806Y-83126272D01*
X87473946Y-83116550D01*
X87624348Y-83023478D01*
X87749305Y-82898303D01*
X87842115Y-82747738D01*
X87897797Y-82579861D01*
X87908500Y-82475400D01*
X87908500Y-81124600D01*
X87897526Y-81018834D01*
X87895345Y-81012295D01*
X87843868Y-80858002D01*
X87841550Y-80851054D01*
X87795619Y-80776831D01*
X87776782Y-80708382D01*
X87797943Y-80640612D01*
X87813669Y-80621435D01*
X88290869Y-80144235D01*
X88353181Y-80110209D01*
X88379964Y-80107330D01*
X89556000Y-80107330D01*
X89624121Y-80127332D01*
X89670614Y-80180988D01*
X89682000Y-80233330D01*
X89682000Y-88256657D01*
X89661998Y-88324778D01*
X89608342Y-88371271D01*
X89538068Y-88381375D01*
X89473488Y-88351881D01*
X89435104Y-88292155D01*
X89432421Y-88281239D01*
X89396546Y-88100883D01*
X89394412Y-88092920D01*
X89301922Y-87820453D01*
X89298772Y-87812849D01*
X89171508Y-87554782D01*
X89167387Y-87547645D01*
X89007530Y-87308401D01*
X89002512Y-87301861D01*
X88989853Y-87287426D01*
X88976614Y-87279028D01*
X88966849Y-87284862D01*
X87569210Y-88682500D01*
X87299095Y-88952615D01*
X87236783Y-88986641D01*
X87165967Y-88981576D01*
X87120905Y-88952615D01*
X86850790Y-88682500D01*
X85454905Y-87286616D01*
X85441144Y-87279102D01*
X85431783Y-87285560D01*
X85417488Y-87301861D01*
X85412470Y-87308401D01*
X85252613Y-87547645D01*
X85248492Y-87554782D01*
X85121228Y-87812849D01*
X85118078Y-87820453D01*
X85025588Y-88092920D01*
X85023454Y-88100883D01*
X84967317Y-88383100D01*
X84966244Y-88391251D01*
X84947425Y-88678381D01*
X84947425Y-88686619D01*
X84966244Y-88973749D01*
X84967317Y-88981900D01*
X85023454Y-89264117D01*
X85025588Y-89272080D01*
X85118078Y-89544547D01*
X85121228Y-89552151D01*
X85248492Y-89810218D01*
X85252613Y-89817355D01*
X85412472Y-90056602D01*
X85417489Y-90063141D01*
X85434837Y-90082923D01*
X85464714Y-90147327D01*
X85455028Y-90217660D01*
X85408855Y-90271591D01*
X85340105Y-90292000D01*
X75939895Y-90292000D01*
X75871774Y-90271998D01*
X75825281Y-90218342D01*
X75815177Y-90148068D01*
X75845163Y-90082923D01*
X75862511Y-90063141D01*
X75867528Y-90056602D01*
X76027387Y-89817355D01*
X76031508Y-89810218D01*
X76158772Y-89552151D01*
X76161922Y-89544547D01*
X76254412Y-89272080D01*
X76256546Y-89264117D01*
X76312683Y-88981900D01*
X76313756Y-88973749D01*
X76332575Y-88686619D01*
X76332575Y-88678381D01*
X76313756Y-88391251D01*
X76312683Y-88383100D01*
X76256546Y-88100883D01*
X76254412Y-88092920D01*
X76161922Y-87820453D01*
X76158772Y-87812849D01*
X76031508Y-87554782D01*
X76027387Y-87547645D01*
X75867530Y-87308401D01*
X75862518Y-87301869D01*
X75849850Y-87287424D01*
X75836614Y-87279028D01*
X75826849Y-87284862D01*
X74429210Y-88682500D01*
X74159095Y-88952615D01*
X74096783Y-88986641D01*
X74025967Y-88981576D01*
X73980905Y-88952615D01*
X73710790Y-88682500D01*
X72314905Y-87286616D01*
X72301144Y-87279102D01*
X72291783Y-87285560D01*
X72277488Y-87301861D01*
X72272470Y-87308401D01*
X72112613Y-87547645D01*
X72108492Y-87554782D01*
X71981228Y-87812849D01*
X71978078Y-87820453D01*
X71885588Y-88092920D01*
X71883454Y-88100883D01*
X71847579Y-88281239D01*
X71814671Y-88344148D01*
X71752976Y-88379280D01*
X71682081Y-88375480D01*
X71624495Y-88333954D01*
X71598501Y-88267887D01*
X71598000Y-88256657D01*
X71598000Y-86915886D01*
X72666528Y-86915886D01*
X72672362Y-86925651D01*
X74057190Y-88310480D01*
X74071131Y-88318092D01*
X74072966Y-88317961D01*
X74079580Y-88313710D01*
X75465884Y-86927405D01*
X75473399Y-86913644D01*
X75466941Y-86904284D01*
X75450639Y-86889988D01*
X75444099Y-86884970D01*
X75204856Y-86725113D01*
X75197719Y-86720992D01*
X74939651Y-86593728D01*
X74932047Y-86590578D01*
X74659580Y-86498088D01*
X74651617Y-86495954D01*
X74369400Y-86439817D01*
X74361249Y-86438744D01*
X74074119Y-86419925D01*
X74065881Y-86419925D01*
X73778751Y-86438744D01*
X73770600Y-86439817D01*
X73488383Y-86495954D01*
X73480420Y-86498088D01*
X73207953Y-86590578D01*
X73200349Y-86593728D01*
X72942282Y-86720992D01*
X72935145Y-86725113D01*
X72695901Y-86884970D01*
X72689361Y-86889988D01*
X72674926Y-86902647D01*
X72666528Y-86915886D01*
X71598000Y-86915886D01*
X71598000Y-80233330D01*
X71618002Y-80165209D01*
X71671658Y-80118716D01*
X71724000Y-80107330D01*
X71781300Y-80107330D01*
X71849421Y-80127332D01*
X71895914Y-80180988D01*
X71907300Y-80233330D01*
X71907300Y-81862033D01*
X71906773Y-81873216D01*
X71905098Y-81880709D01*
X71905347Y-81888635D01*
X71905347Y-81888636D01*
X71907238Y-81948786D01*
X71907300Y-81952745D01*
X71907300Y-81980656D01*
X71907797Y-81984590D01*
X71907797Y-81984591D01*
X71907805Y-81984656D01*
X71908738Y-81996493D01*
X71910127Y-82040689D01*
X71914590Y-82056050D01*
X71915778Y-82060139D01*
X71919787Y-82079500D01*
X71922326Y-82099597D01*
X71925245Y-82106968D01*
X71925245Y-82106970D01*
X71938604Y-82140712D01*
X71942449Y-82151942D01*
X71954782Y-82194393D01*
X71958815Y-82201212D01*
X71958817Y-82201217D01*
X71965093Y-82211828D01*
X71973788Y-82229576D01*
X71981248Y-82248417D01*
X71985910Y-82254833D01*
X71985910Y-82254834D01*
X72007236Y-82284187D01*
X72013752Y-82294107D01*
X72017185Y-82299911D01*
X72036258Y-82332162D01*
X72050579Y-82346483D01*
X72063419Y-82361516D01*
X72075328Y-82377907D01*
X72081434Y-82382958D01*
X72109405Y-82406098D01*
X72118184Y-82414088D01*
X73095863Y-83391767D01*
X73103407Y-83400057D01*
X73107520Y-83406538D01*
X73113297Y-83411963D01*
X73157187Y-83453178D01*
X73160029Y-83455933D01*
X73179750Y-83475654D01*
X73182945Y-83478132D01*
X73191967Y-83485838D01*
X73224199Y-83516106D01*
X73231148Y-83519926D01*
X73241952Y-83525866D01*
X73258476Y-83536719D01*
X73274479Y-83549133D01*
X73315063Y-83566696D01*
X73325693Y-83571903D01*
X73364460Y-83593215D01*
X73372137Y-83595186D01*
X73372142Y-83595188D01*
X73384078Y-83598252D01*
X73402786Y-83604657D01*
X73421375Y-83612701D01*
X73429203Y-83613941D01*
X73429210Y-83613943D01*
X73465044Y-83619619D01*
X73476664Y-83622025D01*
X73508479Y-83630193D01*
X73519490Y-83633020D01*
X73539744Y-83633020D01*
X73559454Y-83634571D01*
X73579463Y-83637740D01*
X73587355Y-83636994D01*
X73606100Y-83635222D01*
X73623482Y-83633579D01*
X73635339Y-83633020D01*
X76171713Y-83633020D01*
X76182896Y-83633547D01*
X76190389Y-83635222D01*
X76198315Y-83634973D01*
X76198316Y-83634973D01*
X76258466Y-83633082D01*
X76262425Y-83633020D01*
X76290336Y-83633020D01*
X76294271Y-83632523D01*
X76294336Y-83632515D01*
X76306173Y-83631582D01*
X76338431Y-83630568D01*
X76342450Y-83630442D01*
X76350369Y-83630193D01*
X76369823Y-83624541D01*
X76389180Y-83620533D01*
X76401410Y-83618988D01*
X76401411Y-83618988D01*
X76409277Y-83617994D01*
X76416648Y-83615075D01*
X76416650Y-83615075D01*
X76450392Y-83601716D01*
X76461622Y-83597871D01*
X76496463Y-83587749D01*
X76496464Y-83587749D01*
X76504073Y-83585538D01*
X76510892Y-83581505D01*
X76510897Y-83581503D01*
X76521508Y-83575227D01*
X76539256Y-83566532D01*
X76558097Y-83559072D01*
X76578467Y-83544273D01*
X76593867Y-83533084D01*
X76603787Y-83526568D01*
X76635015Y-83508100D01*
X76635018Y-83508098D01*
X76641842Y-83504062D01*
X76656163Y-83489741D01*
X76671197Y-83476900D01*
X76672912Y-83475654D01*
X76687587Y-83464992D01*
X76715778Y-83430915D01*
X76723768Y-83422136D01*
X76925499Y-83220405D01*
X76987811Y-83186379D01*
X77014594Y-83183500D01*
X77900400Y-83183500D01*
X77903646Y-83183163D01*
X77903650Y-83183163D01*
X77999308Y-83173238D01*
X77999312Y-83173237D01*
X78006166Y-83172526D01*
X78012702Y-83170345D01*
X78012704Y-83170345D01*
X78144806Y-83126272D01*
X78173946Y-83116550D01*
X78324348Y-83023478D01*
X78449305Y-82898303D01*
X78542115Y-82747738D01*
X78597797Y-82579861D01*
X78608500Y-82475400D01*
X78608500Y-82321101D01*
X78628502Y-82252980D01*
X78682158Y-82206487D01*
X78752432Y-82196383D01*
X78817012Y-82225877D01*
X78823595Y-82232006D01*
X79154595Y-82563006D01*
X79188621Y-82625318D01*
X79191500Y-82652101D01*
X79191500Y-84699526D01*
X79171498Y-84767647D01*
X79118750Y-84813721D01*
X79002324Y-84868012D01*
X78997820Y-84871166D01*
X78997815Y-84871169D01*
X78824730Y-84992364D01*
X78824727Y-84992366D01*
X78820219Y-84995523D01*
X78663023Y-85152719D01*
X78635781Y-85191624D01*
X78580326Y-85235952D01*
X78509707Y-85243262D01*
X78446346Y-85211231D01*
X78410361Y-85150030D01*
X78407306Y-85132962D01*
X78405971Y-85120673D01*
X78403745Y-85100184D01*
X78352615Y-84963795D01*
X78265261Y-84847239D01*
X78148705Y-84759885D01*
X78012316Y-84708755D01*
X77950134Y-84702000D01*
X76329866Y-84702000D01*
X76267684Y-84708755D01*
X76131295Y-84759885D01*
X76014739Y-84847239D01*
X75927385Y-84963795D01*
X75876255Y-85100184D01*
X75869500Y-85162366D01*
X75869500Y-86782634D01*
X75876255Y-86844816D01*
X75927385Y-86981205D01*
X76014739Y-87097761D01*
X76018992Y-87100949D01*
X76018993Y-87100950D01*
X76113650Y-87171891D01*
X76131295Y-87185115D01*
X76267684Y-87236245D01*
X76329866Y-87243000D01*
X77950134Y-87243000D01*
X78012316Y-87236245D01*
X78148705Y-87185115D01*
X78265261Y-87097761D01*
X78352615Y-86981205D01*
X78403745Y-86844816D01*
X78407306Y-86812038D01*
X78434549Y-86746476D01*
X78492912Y-86706050D01*
X78563866Y-86703596D01*
X78624884Y-86739892D01*
X78635777Y-86753369D01*
X78663023Y-86792281D01*
X78820219Y-86949477D01*
X78824727Y-86952634D01*
X78824730Y-86952636D01*
X78871499Y-86985384D01*
X79002323Y-87076988D01*
X79007307Y-87079312D01*
X79007319Y-87079319D01*
X79009211Y-87080201D01*
X79009904Y-87080811D01*
X79012074Y-87082064D01*
X79011822Y-87082500D01*
X79062494Y-87127120D01*
X79081952Y-87195399D01*
X79059874Y-87262429D01*
X79060960Y-87263056D01*
X79057659Y-87268774D01*
X79057655Y-87268780D01*
X78968777Y-87422721D01*
X78965473Y-87428444D01*
X78906458Y-87610072D01*
X78886496Y-87800000D01*
X78906458Y-87989928D01*
X78965473Y-88171556D01*
X78968776Y-88177278D01*
X78968777Y-88177279D01*
X79002686Y-88236010D01*
X79060960Y-88336944D01*
X79065378Y-88341851D01*
X79065379Y-88341852D01*
X79074409Y-88351881D01*
X79188747Y-88478866D01*
X79343248Y-88591118D01*
X79349276Y-88593802D01*
X79349278Y-88593803D01*
X79511681Y-88666109D01*
X79517712Y-88668794D01*
X79601572Y-88686619D01*
X79698056Y-88707128D01*
X79698061Y-88707128D01*
X79704513Y-88708500D01*
X79895487Y-88708500D01*
X79901939Y-88707128D01*
X79901944Y-88707128D01*
X79998428Y-88686619D01*
X80082288Y-88668794D01*
X80088319Y-88666109D01*
X80250722Y-88593803D01*
X80250724Y-88593802D01*
X80256752Y-88591118D01*
X80411253Y-88478866D01*
X80525591Y-88351881D01*
X80534621Y-88341852D01*
X80534622Y-88341851D01*
X80539040Y-88336944D01*
X80590881Y-88247153D01*
X80642264Y-88198160D01*
X80711977Y-88184724D01*
X80777888Y-88211110D01*
X80809119Y-88247153D01*
X80860960Y-88336944D01*
X80865378Y-88341851D01*
X80865379Y-88341852D01*
X80874409Y-88351881D01*
X80988747Y-88478866D01*
X81143248Y-88591118D01*
X81149276Y-88593802D01*
X81149278Y-88593803D01*
X81311681Y-88666109D01*
X81317712Y-88668794D01*
X81401572Y-88686619D01*
X81498056Y-88707128D01*
X81498061Y-88707128D01*
X81504513Y-88708500D01*
X81695487Y-88708500D01*
X81701939Y-88707128D01*
X81701944Y-88707128D01*
X81798428Y-88686619D01*
X81882288Y-88668794D01*
X81888319Y-88666109D01*
X82050722Y-88593803D01*
X82050724Y-88593802D01*
X82056752Y-88591118D01*
X82211253Y-88478866D01*
X82325591Y-88351881D01*
X82334621Y-88341852D01*
X82334622Y-88341851D01*
X82339040Y-88336944D01*
X82397314Y-88236010D01*
X82431223Y-88177279D01*
X82431224Y-88177278D01*
X82434527Y-88171556D01*
X82493542Y-87989928D01*
X82513504Y-87800000D01*
X82493542Y-87610072D01*
X82434527Y-87428444D01*
X82426925Y-87415276D01*
X82352642Y-87286616D01*
X82339040Y-87263056D01*
X82307852Y-87228419D01*
X82277137Y-87164415D01*
X82285900Y-87093961D01*
X82329219Y-87040898D01*
X82342959Y-87031277D01*
X83445777Y-87031277D01*
X83455074Y-87043293D01*
X83498069Y-87073398D01*
X83507555Y-87078876D01*
X83698993Y-87168145D01*
X83709285Y-87171891D01*
X83913309Y-87226559D01*
X83924104Y-87228462D01*
X84134525Y-87246872D01*
X84145475Y-87246872D01*
X84355896Y-87228462D01*
X84366691Y-87226559D01*
X84570715Y-87171891D01*
X84581007Y-87168145D01*
X84772445Y-87078876D01*
X84781931Y-87073398D01*
X84825764Y-87042707D01*
X84834139Y-87032229D01*
X84827071Y-87018781D01*
X84724176Y-86915886D01*
X85806528Y-86915886D01*
X85812362Y-86925651D01*
X87197190Y-88310480D01*
X87211131Y-88318092D01*
X87212966Y-88317961D01*
X87219580Y-88313710D01*
X88605884Y-86927405D01*
X88613399Y-86913644D01*
X88606941Y-86904284D01*
X88590639Y-86889988D01*
X88584099Y-86884970D01*
X88344856Y-86725113D01*
X88337719Y-86720992D01*
X88079651Y-86593728D01*
X88072047Y-86590578D01*
X87799580Y-86498088D01*
X87791617Y-86495954D01*
X87509400Y-86439817D01*
X87501249Y-86438744D01*
X87214119Y-86419925D01*
X87205881Y-86419925D01*
X86918751Y-86438744D01*
X86910600Y-86439817D01*
X86628383Y-86495954D01*
X86620420Y-86498088D01*
X86347953Y-86590578D01*
X86340349Y-86593728D01*
X86082282Y-86720992D01*
X86075145Y-86725113D01*
X85835901Y-86884970D01*
X85829361Y-86889988D01*
X85814926Y-86902647D01*
X85806528Y-86915886D01*
X84724176Y-86915886D01*
X84152812Y-86344522D01*
X84138868Y-86336908D01*
X84137035Y-86337039D01*
X84130420Y-86341290D01*
X83452207Y-87019503D01*
X83445777Y-87031277D01*
X82342959Y-87031277D01*
X82455270Y-86952636D01*
X82455273Y-86952634D01*
X82459781Y-86949477D01*
X82616977Y-86792281D01*
X82621354Y-86786031D01*
X82741331Y-86614685D01*
X82741332Y-86614683D01*
X82744488Y-86610176D01*
X82746811Y-86605194D01*
X82746814Y-86605189D01*
X82776081Y-86542425D01*
X82822999Y-86489140D01*
X82891276Y-86469679D01*
X82959236Y-86490221D01*
X83004471Y-86542425D01*
X83033623Y-86604941D01*
X83039103Y-86614432D01*
X83069794Y-86658265D01*
X83080271Y-86666640D01*
X83093718Y-86659572D01*
X83767978Y-85985312D01*
X83774356Y-85973632D01*
X84504408Y-85973632D01*
X84504539Y-85975465D01*
X84508790Y-85982080D01*
X85187003Y-86660293D01*
X85198777Y-86666723D01*
X85210793Y-86657426D01*
X85240897Y-86614432D01*
X85246377Y-86604941D01*
X85335645Y-86413507D01*
X85339391Y-86403215D01*
X85394059Y-86199191D01*
X85395962Y-86188396D01*
X85414372Y-85977975D01*
X85414372Y-85967025D01*
X85395962Y-85756604D01*
X85394059Y-85745809D01*
X85339391Y-85541785D01*
X85335645Y-85531493D01*
X85246377Y-85340059D01*
X85240897Y-85330568D01*
X85210206Y-85286735D01*
X85199729Y-85278360D01*
X85186282Y-85285428D01*
X84512022Y-85959688D01*
X84504408Y-85973632D01*
X83774356Y-85973632D01*
X83775592Y-85971368D01*
X83775461Y-85969535D01*
X83771210Y-85962920D01*
X83092997Y-85284707D01*
X83081223Y-85278277D01*
X83069207Y-85287574D01*
X83039103Y-85330568D01*
X83033623Y-85340059D01*
X83004471Y-85402575D01*
X82957553Y-85455860D01*
X82889276Y-85475321D01*
X82821316Y-85454779D01*
X82776081Y-85402575D01*
X82746814Y-85339811D01*
X82746811Y-85339806D01*
X82744488Y-85334824D01*
X82741331Y-85330315D01*
X82620136Y-85157230D01*
X82620134Y-85157227D01*
X82616977Y-85152719D01*
X82459781Y-84995523D01*
X82455273Y-84992366D01*
X82455270Y-84992364D01*
X82341599Y-84912771D01*
X83445860Y-84912771D01*
X83452928Y-84926218D01*
X84127188Y-85600478D01*
X84141132Y-85608092D01*
X84142965Y-85607961D01*
X84149580Y-85603710D01*
X84827793Y-84925497D01*
X84834223Y-84913723D01*
X84824926Y-84901707D01*
X84781931Y-84871602D01*
X84772445Y-84866124D01*
X84581007Y-84776855D01*
X84570715Y-84773109D01*
X84366691Y-84718441D01*
X84355896Y-84716538D01*
X84145475Y-84698128D01*
X84134525Y-84698128D01*
X83924104Y-84716538D01*
X83913309Y-84718441D01*
X83709285Y-84773109D01*
X83698993Y-84776855D01*
X83507559Y-84866123D01*
X83498068Y-84871603D01*
X83454235Y-84902294D01*
X83445860Y-84912771D01*
X82341599Y-84912771D01*
X82277677Y-84868012D01*
X82272694Y-84865688D01*
X82271500Y-84864999D01*
X82222506Y-84813616D01*
X82208500Y-84755880D01*
X82208500Y-82352101D01*
X82228502Y-82283980D01*
X82245405Y-82263006D01*
X82276405Y-82232006D01*
X82338717Y-82197980D01*
X82409532Y-82203045D01*
X82466368Y-82245592D01*
X82491179Y-82312112D01*
X82491500Y-82321101D01*
X82491500Y-82475400D01*
X82491837Y-82478646D01*
X82491837Y-82478650D01*
X82500590Y-82563006D01*
X82502474Y-82581166D01*
X82558450Y-82748946D01*
X82651522Y-82899348D01*
X82776697Y-83024305D01*
X82782927Y-83028145D01*
X82782928Y-83028146D01*
X82920090Y-83112694D01*
X82927262Y-83117115D01*
X83007005Y-83143564D01*
X83088611Y-83170632D01*
X83088613Y-83170632D01*
X83095139Y-83172797D01*
X83101975Y-83173497D01*
X83101978Y-83173498D01*
X83145031Y-83177909D01*
X83199600Y-83183500D01*
X84100400Y-83183500D01*
X84103646Y-83183163D01*
X84103650Y-83183163D01*
X84199308Y-83173238D01*
X84199312Y-83173237D01*
X84206166Y-83172526D01*
X84212702Y-83170345D01*
X84212704Y-83170345D01*
X84344806Y-83126272D01*
X84373946Y-83116550D01*
X84524348Y-83023478D01*
X84649305Y-82898303D01*
X84742115Y-82747738D01*
X84797797Y-82579861D01*
X84808500Y-82475400D01*
X84808500Y-81124600D01*
X84797526Y-81018834D01*
X84795345Y-81012296D01*
X84795345Y-81012295D01*
X84782466Y-80973693D01*
X84779882Y-80902743D01*
X84816066Y-80841659D01*
X84879530Y-80809835D01*
X84888819Y-80808507D01*
X84888886Y-80808500D01*
X84895487Y-80808500D01*
X85082288Y-80768794D01*
X85088319Y-80766109D01*
X85250722Y-80693803D01*
X85250724Y-80693802D01*
X85256752Y-80691118D01*
X85411253Y-80578866D01*
X85539040Y-80436944D01*
X85616386Y-80302977D01*
X85631223Y-80277279D01*
X85631224Y-80277278D01*
X85634527Y-80271556D01*
X85693542Y-80089928D01*
X85713504Y-79900000D01*
X85693542Y-79710072D01*
X85634527Y-79528444D01*
X85539040Y-79363056D01*
X85411253Y-79221134D01*
X85256752Y-79108882D01*
X85250724Y-79106198D01*
X85250722Y-79106197D01*
X85088319Y-79033891D01*
X85088318Y-79033891D01*
X85082288Y-79031206D01*
X84970728Y-79007493D01*
X84901944Y-78992872D01*
X84901939Y-78992872D01*
X84895487Y-78991500D01*
X84704513Y-78991500D01*
X84698061Y-78992872D01*
X84698056Y-78992872D01*
X84649558Y-79003181D01*
X84578767Y-78997779D01*
X84522134Y-78954962D01*
X84497641Y-78888324D01*
X84497361Y-78879934D01*
X84497361Y-77897494D01*
X84498439Y-77881048D01*
X84501534Y-77857538D01*
X84502612Y-77849350D01*
X84481699Y-77690499D01*
X84420385Y-77542474D01*
X84347339Y-77447279D01*
X84347335Y-77447275D01*
X84337756Y-77434791D01*
X84327877Y-77421916D01*
X84327874Y-77421913D01*
X84322848Y-77415363D01*
X84316293Y-77410333D01*
X84297482Y-77395898D01*
X84285091Y-77385031D01*
X83973655Y-77073595D01*
X83939629Y-77011283D01*
X83944694Y-76940468D01*
X83987241Y-76883632D01*
X84053761Y-76858821D01*
X84062750Y-76858500D01*
X84188134Y-76858500D01*
X84250316Y-76851745D01*
X84386705Y-76800615D01*
X84503261Y-76713261D01*
X84539176Y-76665340D01*
X84596033Y-76622827D01*
X84666851Y-76617801D01*
X84729145Y-76651861D01*
G37*
%TD.AperFunction*%
%TA.AperFunction,Conductor*%
G36*
X78250343Y-76851992D02*
G01*
X78316871Y-76855465D01*
X78364214Y-76885251D01*
X78524700Y-77045737D01*
X78535567Y-77058127D01*
X78555035Y-77083498D01*
X78561581Y-77088521D01*
X78561584Y-77088524D01*
X78586949Y-77107987D01*
X78586951Y-77107988D01*
X78638325Y-77147409D01*
X78682146Y-77181035D01*
X78689772Y-77184194D01*
X78689774Y-77184195D01*
X78742926Y-77206211D01*
X78830171Y-77242349D01*
X78838358Y-77243427D01*
X78838359Y-77243427D01*
X78849564Y-77244902D01*
X78880760Y-77249009D01*
X78949137Y-77258011D01*
X78949140Y-77258011D01*
X78949148Y-77258012D01*
X78980833Y-77262183D01*
X78989022Y-77263261D01*
X78997211Y-77262183D01*
X78997212Y-77262183D01*
X79019783Y-77259212D01*
X79089932Y-77270152D01*
X79143029Y-77317282D01*
X79162218Y-77385636D01*
X79141405Y-77453513D01*
X79117858Y-77473430D01*
X79095671Y-77499035D01*
X79094000Y-77506718D01*
X79094000Y-78527885D01*
X79098475Y-78543124D01*
X79099865Y-78544329D01*
X79107548Y-78546000D01*
X80479234Y-78546000D01*
X80494473Y-78541525D01*
X80495678Y-78540135D01*
X80497349Y-78532452D01*
X80497349Y-77956501D01*
X80496979Y-77949680D01*
X80491455Y-77898818D01*
X80487829Y-77883566D01*
X80442674Y-77763116D01*
X80434136Y-77747521D01*
X80357635Y-77645446D01*
X80345074Y-77632885D01*
X80242999Y-77556384D01*
X80227404Y-77547846D01*
X80105092Y-77501993D01*
X80048328Y-77459351D01*
X80023628Y-77392790D01*
X80038835Y-77323441D01*
X80089121Y-77273323D01*
X80149322Y-77258011D01*
X81130678Y-77258011D01*
X81198799Y-77278013D01*
X81245292Y-77331669D01*
X81255396Y-77401943D01*
X81225902Y-77466523D01*
X81174908Y-77501993D01*
X81052596Y-77547846D01*
X81037001Y-77556384D01*
X80934926Y-77632885D01*
X80922365Y-77645446D01*
X80845864Y-77747521D01*
X80837326Y-77763116D01*
X80792172Y-77883564D01*
X80788545Y-77898819D01*
X80783019Y-77949684D01*
X80782650Y-77956498D01*
X80782650Y-78527885D01*
X80787125Y-78543124D01*
X80788515Y-78544329D01*
X80796198Y-78546000D01*
X82568000Y-78546000D01*
X82636121Y-78566002D01*
X82682614Y-78619658D01*
X82694000Y-78672000D01*
X82694000Y-80041123D01*
X82673998Y-80109244D01*
X82657095Y-80130218D01*
X81203766Y-81583547D01*
X81191375Y-81594414D01*
X81166013Y-81613875D01*
X81141526Y-81645787D01*
X81141523Y-81645790D01*
X81068476Y-81740986D01*
X81065316Y-81748616D01*
X81035724Y-81820057D01*
X81014682Y-81870858D01*
X81007162Y-81889012D01*
X80991500Y-82007977D01*
X80991500Y-82007982D01*
X80986250Y-82047862D01*
X80987328Y-82056050D01*
X80990422Y-82079552D01*
X80991500Y-82095998D01*
X80991500Y-84809999D01*
X80971498Y-84878120D01*
X80937771Y-84913212D01*
X80824730Y-84992364D01*
X80824727Y-84992366D01*
X80820219Y-84995523D01*
X80729095Y-85086647D01*
X80666783Y-85120673D01*
X80595968Y-85115608D01*
X80550905Y-85086647D01*
X80459781Y-84995523D01*
X80455269Y-84992364D01*
X80453508Y-84990886D01*
X80414182Y-84931776D01*
X80408500Y-84894365D01*
X80408500Y-82395998D01*
X80409578Y-82379552D01*
X80412672Y-82356050D01*
X80413750Y-82347862D01*
X80408500Y-82307984D01*
X80408500Y-82307977D01*
X80395139Y-82206487D01*
X80393916Y-82197200D01*
X80392838Y-82189012D01*
X80331524Y-82040987D01*
X80308058Y-82010405D01*
X80285230Y-81980656D01*
X80285228Y-81980654D01*
X80263814Y-81952745D01*
X80258477Y-81945790D01*
X80258474Y-81945787D01*
X80258471Y-81945783D01*
X80239016Y-81920428D01*
X80239013Y-81920425D01*
X80233987Y-81913875D01*
X80227432Y-81908845D01*
X80208621Y-81894410D01*
X80196230Y-81883543D01*
X78588045Y-80275358D01*
X78554019Y-80213046D01*
X78559084Y-80142231D01*
X78581915Y-80103752D01*
X78584328Y-80100967D01*
X78586000Y-80093282D01*
X78586000Y-80088714D01*
X79094000Y-80088714D01*
X79098475Y-80103953D01*
X79099865Y-80105158D01*
X79107548Y-80106829D01*
X80034019Y-80106829D01*
X80040840Y-80106459D01*
X80091702Y-80100935D01*
X80106954Y-80097309D01*
X80227404Y-80052154D01*
X80242999Y-80043616D01*
X80345074Y-79967115D01*
X80357635Y-79954554D01*
X80434136Y-79852479D01*
X80442674Y-79836884D01*
X80487828Y-79716436D01*
X80491455Y-79701181D01*
X80496981Y-79650316D01*
X80497350Y-79643502D01*
X80497350Y-79643499D01*
X80782651Y-79643499D01*
X80783021Y-79650320D01*
X80788545Y-79701182D01*
X80792171Y-79716434D01*
X80837326Y-79836884D01*
X80845864Y-79852479D01*
X80922365Y-79954554D01*
X80934926Y-79967115D01*
X81037001Y-80043616D01*
X81052596Y-80052154D01*
X81173044Y-80097308D01*
X81188299Y-80100935D01*
X81239164Y-80106461D01*
X81245978Y-80106830D01*
X82167885Y-80106830D01*
X82183124Y-80102355D01*
X82184329Y-80100965D01*
X82186000Y-80093282D01*
X82186000Y-79072115D01*
X82181525Y-79056876D01*
X82180135Y-79055671D01*
X82172452Y-79054000D01*
X80800766Y-79054000D01*
X80785527Y-79058475D01*
X80784322Y-79059865D01*
X80782651Y-79067548D01*
X80782651Y-79643499D01*
X80497350Y-79643499D01*
X80497350Y-79072115D01*
X80492875Y-79056876D01*
X80491485Y-79055671D01*
X80483802Y-79054000D01*
X79112115Y-79054000D01*
X79096876Y-79058475D01*
X79095671Y-79059865D01*
X79094000Y-79067548D01*
X79094000Y-80088714D01*
X78586000Y-80088714D01*
X78586000Y-77511286D01*
X78581525Y-77496047D01*
X78580135Y-77494842D01*
X78572452Y-77493171D01*
X77645981Y-77493171D01*
X77639160Y-77493541D01*
X77588298Y-77499065D01*
X77573046Y-77502691D01*
X77452596Y-77547846D01*
X77437001Y-77556384D01*
X77334926Y-77632885D01*
X77323106Y-77644705D01*
X77260794Y-77678731D01*
X77189979Y-77673666D01*
X77133143Y-77631119D01*
X77108332Y-77564599D01*
X77108011Y-77555610D01*
X77108011Y-76984500D01*
X77128013Y-76916379D01*
X77181669Y-76869886D01*
X77234011Y-76858500D01*
X78188134Y-76858500D01*
X78248788Y-76851911D01*
X78250316Y-76851745D01*
X78250343Y-76851992D01*
G37*
%TD.AperFunction*%
%TA.AperFunction,Conductor*%
G36*
X88436121Y-73716002D02*
G01*
X88482614Y-73769658D01*
X88494000Y-73822000D01*
X88494000Y-74939884D01*
X88498475Y-74955123D01*
X88499865Y-74956328D01*
X88507548Y-74957999D01*
X89534669Y-74957999D01*
X89541475Y-74957630D01*
X89542389Y-74957531D01*
X89542602Y-74957569D01*
X89544877Y-74957446D01*
X89544906Y-74957982D01*
X89612272Y-74970058D01*
X89664289Y-75018377D01*
X89682000Y-75082794D01*
X89682000Y-77366670D01*
X89661998Y-77434791D01*
X89608342Y-77481284D01*
X89556000Y-77492670D01*
X88379965Y-77492670D01*
X88311844Y-77472668D01*
X88290870Y-77455765D01*
X87335894Y-76500789D01*
X87301868Y-76438477D01*
X87298989Y-76411694D01*
X87298989Y-75084000D01*
X87318991Y-75015879D01*
X87372647Y-74969386D01*
X87424989Y-74958000D01*
X87967885Y-74958000D01*
X87983124Y-74953525D01*
X87984329Y-74952135D01*
X87986000Y-74944452D01*
X87986000Y-73822000D01*
X88006002Y-73753879D01*
X88059658Y-73707386D01*
X88112000Y-73696000D01*
X88368000Y-73696000D01*
X88436121Y-73716002D01*
G37*
%TD.AperFunction*%
%TD*%
M02*
