<?xml version="1.0" encoding="UTF-8" standalone="no"?>
<svg
   xmlns:dc="http://purl.org/dc/elements/1.1/"
   xmlns:cc="http://creativecommons.org/ns#"
   xmlns:rdf="http://www.w3.org/1999/02/22-rdf-syntax-ns#"
   xmlns:svg="http://www.w3.org/2000/svg"
   xmlns="http://www.w3.org/2000/svg"
   xmlns:sodipodi="http://sodipodi.sourceforge.net/DTD/sodipodi-0.dtd"
   xmlns:inkscape="http://www.inkscape.org/namespaces/inkscape"
   inkscape:version="1.0 (4035a4fb49, 2020-05-01)"
   sodipodi:docname="help-aboutrgb.svg"
   id="svg8"
   version="1.1"
   viewBox="0 0 24 24"
   height="24px"
   width="24px">
  <metadata
     id="metadata14">
    <rdf:RDF>
      <cc:Work
         rdf:about="">
        <dc:format>image/svg+xml</dc:format>
        <dc:type
           rdf:resource="http://purl.org/dc/dcmitype/StillImage" />
      </cc:Work>
    </rdf:RDF>
  </metadata>
  <defs
     id="defs12" />
  <sodipodi:namedview
     inkscape:current-layer="surface1"
     inkscape:window-maximized="1"
     inkscape:window-y="32"
     inkscape:window-x="0"
     inkscape:cy="10.855781"
     inkscape:cx="12"
     inkscape:zoom="34.958333"
     showgrid="false"
     id="namedview10"
     inkscape:window-height="1048"
     inkscape:window-width="1920"
     inkscape:pageshadow="2"
     inkscape:pageopacity="0"
     guidetolerance="10"
     gridtolerance="10"
     objecttolerance="10"
     borderopacity="1"
     bordercolor="#666666"
     pagecolor="#ffffff" />
  <g
     id="surface1">
    <defs
       id="defs3">
      <style
         type="text/css"
         id="current-color-scheme">
   .ColorScheme-Text { color:#eeeeee; } .ColorScheme-Highlight { color:#424242; }
  </style>
    </defs>
    <path
       id="path5"
       d="M 12 5 C 8.121094 5 5 8.121094 5 12 C 5 15.878906 8.121094 19 12 19 C 15.878906 19 19 15.878906 19 12 C 19 8.121094 15.878906 5 12 5 Z M 12 7 C 14.769531 7 17 9.230469 17 12 C 17 14.769531 14.769531 17 12 17 C 9.230469 17 7 14.769531 7 12 C 7 9.230469 9.230469 7 12 7 Z M 12 8 C 11.445312 8 11 8.445312 11 9 C 11 9.554688 11.445312 10 12 10 C 12.554688 10 13 9.554688 13 9 C 13 8.445312 12.554688 8 12 8 Z M 11 11 L 11 16 L 13 16 L 13 11 Z M 11 11 "
       class="ColorScheme-Text"
       style="fill:#6666bb;fill-opacity:0.66666669" />
  </g>
</svg>
