<?xml version="1.0" encoding="UTF-8" standalone="no"?>
<svg
   xmlns:dc="http://purl.org/dc/elements/1.1/"
   xmlns:cc="http://creativecommons.org/ns#"
   xmlns:rdf="http://www.w3.org/1999/02/22-rdf-syntax-ns#"
   xmlns:svg="http://www.w3.org/2000/svg"
   xmlns="http://www.w3.org/2000/svg"
   xmlns:sodipodi="http://sodipodi.sourceforge.net/DTD/sodipodi-0.dtd"
   xmlns:inkscape="http://www.inkscape.org/namespaces/inkscape"
   width="128"
   height="64"
   viewBox="0 0 33.866666 16.933334"
   version="1.1"
   id="svg8"
   inkscape:version="1.0.2 (e86c870879, 2021-01-15)"
   sodipodi:docname="logo.svg">
  <defs
     id="defs2" />
  <sodipodi:namedview
     id="base"
     pagecolor="#ffffff"
     bordercolor="#666666"
     borderopacity="1.0"
     inkscape:pageopacity="0.0"
     inkscape:pageshadow="2"
     inkscape:zoom="7.9195959"
     inkscape:cx="75.238599"
     inkscape:cy="13.122439"
     inkscape:document-units="mm"
     inkscape:current-layer="layer1"
     inkscape:document-rotation="0"
     showgrid="false"
     units="px"
     inkscape:window-width="1920"
     inkscape:window-height="1024"
     inkscape:window-x="0"
     inkscape:window-y="420"
     inkscape:window-maximized="1" />
  <metadata
     id="metadata5">
    <rdf:RDF>
      <cc:Work
         rdf:about="">
        <dc:format>image/svg+xml</dc:format>
        <dc:type
           rdf:resource="http://purl.org/dc/dcmitype/StillImage" />
        <dc:title />
      </cc:Work>
    </rdf:RDF>
  </metadata>
  <g
     inkscape:label="Capa 1"
     inkscape:groupmode="layer"
     id="layer1">
    <rect
       style="fill:#ffffff;fill-opacity:1;stroke:none;stroke-width:0.489373;stroke-miterlimit:4;stroke-dasharray:none;stroke-opacity:1"
       id="rect927"
       width="4.5454998"
       height="3.420547"
       x="0.62385535"
       y="0.37604964"
       inkscape:export-filename="/home/nick/rect927.png"
       inkscape:export-xdpi="140"
       inkscape:export-ydpi="140" />
    <g
       id="g47"
       transform="translate(-59.247093,-59.536256)">
      <g
         id="g853">
        <path
           style="fill:none;stroke:#000000;stroke-width:0.4;stroke-linecap:butt;stroke-linejoin:miter;stroke-miterlimit:4;stroke-dasharray:none;stroke-opacity:1"
           d="M 5.4272227,5.3863348 V 9.8926122"
           id="path845" />
        <path
           style="fill:#000000;fill-opacity:1;stroke:#000000;stroke-width:0.265;stroke-linecap:square;stroke-linejoin:round;stroke-miterlimit:4;stroke-dasharray:none;stroke-opacity:1"
           d="m 5.4349616,5.1219756 -0.7402239,0.7402239 1.4804475,-2e-7 -0.7402236,-0.7402237"
           id="path849" />
      </g>
      <circle
         style="fill:none;fill-rule:evenodd;stroke:#000000;stroke-width:0.264583;stroke-opacity:1"
         id="path10"
         cx="7.3296728"
         cy="8.2973061"
         r="4.8085961" />
      <text
         xml:space="preserve"
         style="font-style:normal;font-weight:normal;font-size:4.58944px;line-height:1.25;font-family:sans-serif;fill:#000000;fill-opacity:1;stroke:none;stroke-width:0.114736"
         x="13.761774"
         y="8.1128664"
         id="text837"><tspan
           sodipodi:role="line"
           id="tspan835"
           x="13.761774"
           y="8.1128664"
           style="stroke-width:0.114736">FullAxis</tspan></text>
      <text
         xml:space="preserve"
         style="font-style:normal;font-weight:normal;font-size:3.41702px;line-height:1.25;font-family:sans-serif;fill:#000000;fill-opacity:1;stroke:none;stroke-width:0.0854256"
         x="17.373373"
         y="12.077809"
         id="text841"><tspan
           sodipodi:role="line"
           id="tspan839"
           x="17.373373"
           y="12.077809"
           style="stroke-width:0.0854256">9axis</tspan></text>
      <path
         style="fill:none;stroke:#000000;stroke-width:0.264583px;stroke-linecap:butt;stroke-linejoin:miter;stroke-opacity:1"
         d="m 12.187728,8.6324672 h 20.082961 v 0.063898"
         id="path843" />
      <g
         id="g859"
         inkscape:transform-center-x="-2.3841382"
         inkscape:transform-center-y="0.034623445"
         transform="rotate(90,5.400338,9.891432)">
        <path
           style="fill:none;stroke:#000000;stroke-width:0.4;stroke-linecap:butt;stroke-linejoin:miter;stroke-miterlimit:4;stroke-dasharray:none;stroke-opacity:1"
           d="M 5.4272227,5.3863348 V 9.8926122"
           id="path855" />
        <path
           style="fill:#000000;fill-opacity:1;stroke:#000000;stroke-width:0.265;stroke-linecap:square;stroke-linejoin:round;stroke-miterlimit:4;stroke-dasharray:none;stroke-opacity:1"
           d="m 5.4349616,5.1219756 -0.7402239,0.7402239 1.4804475,-2e-7 -0.7402236,-0.7402237"
           id="path857" />
      </g>
      <g
         id="g865"
         inkscape:transform-center-x="-1.7075868"
         inkscape:transform-center-y="-1.6640938"
         transform="rotate(45,5.400338,9.891432)">
        <path
           style="fill:none;stroke:#000000;stroke-width:0.4;stroke-linecap:butt;stroke-linejoin:miter;stroke-miterlimit:4;stroke-dasharray:none;stroke-opacity:1"
           d="M 5.4272227,5.3863348 V 9.8926122"
           id="path861" />
        <path
           style="fill:#000000;fill-opacity:1;stroke:#000000;stroke-width:0.265;stroke-linecap:square;stroke-linejoin:round;stroke-miterlimit:4;stroke-dasharray:none;stroke-opacity:1"
           d="m 5.4349616,5.1219756 -0.7402239,0.7402239 1.4804475,-2e-7 -0.7402236,-0.7402237"
           id="path863" />
      </g>
      <circle
         style="fill:none;fill-rule:evenodd;stroke:#000000;stroke-width:0.238403;stroke-opacity:1"
         id="circle867"
         cx="7.3296728"
         cy="8.2973061"
         r="4.3327918" />
    </g>
    <rect
       style="fill:none;fill-rule:evenodd;stroke:#000000;stroke-width:0.26458333;stroke-opacity:1;stroke-miterlimit:4;stroke-dasharray:none"
       id="rect49"
       width="5.7849011"
       height="2.3310151"
       x="27.314571"
       y="0.92631215"
       ry="1.1655076" />
    <text
       xml:space="preserve"
       style="font-style:normal;font-weight:normal;font-size:3.52778px;line-height:1.25;font-family:sans-serif;fill:#000000;fill-opacity:1;stroke:none;stroke-width:0.264583"
       x="17.927341"
       y="3.2985702"
       id="text876"><tspan
         sodipodi:role="line"
         id="tspan874"
         x="17.927341"
         y="3.2985702"
         style="font-style:normal;font-variant:normal;font-weight:normal;font-stretch:normal;font-size:3.52778px;font-family:Arial;-inkscape-font-specification:Arial;stroke-width:0.264583">100%</tspan></text>
    <g
       fill="#020202"
       id="g16"
       transform="matrix(0.00815669,0,0,0.00815669,0.81675797,0.04403328)"
       inkscape:export-xdpi="62.979389"
       inkscape:export-ydpi="62.979389">
      <path
         d="M 6.644,273.594 C 1.366,200.297 28.789,125.304 80.439,72.991 c 7.056,-6.854 19.399,-5.96 25.867,1.271 7.83,6.643 7.968,19.942 0.34,26.796 -43.083,44.751 -66.38,107.934 -61.746,169.974 3.316,51.539 25.516,101.467 61.073,138.865 3.398,3.326 6.189,7.573 6.43,12.465 1.437,12.251 -11.368,23.581 -23.352,20.938 -4.303,-0.745 -7.886,-3.51 -10.75,-6.669 C 36.379,392.848 10.632,334.068 6.644,273.594 Z"
         id="path4" />
      <path
         d="m 78.523,275.408 c -6.108,-56.155 14.591,-114.465 54.717,-154.204 7.093,-6.209 18.691,-5.435 25.066,1.464 7.699,6.292 8.564,18.976 1.583,26.106 -25.083,25.443 -41.011,59.839 -43.617,95.506 -3.593,43.312 12.841,87.566 43.358,118.406 7.519,7.112 6.661,20.358 -1.336,26.761 -6.512,6.898 -18.423,7.471 -25.321,0.849 C 102.39,359.731 82.935,318.397 78.523,275.408 Z"
         id="path6" />
      <path
         d="m 149.443,267.107 c -3.52,-35.438 10.051,-72.072 35.715,-96.731 7.028,-6.752 19.123,-5.97 25.626,1.142 7.794,6.458 8.319,19.4 1.014,26.419 -14.269,13.9 -23.286,33.153 -24.373,53.087 -1.612,22.625 7.323,45.515 23.223,61.581 4.439,3.95 7.167,9.818 6.458,15.825 -0.979,13.946 -19.594,23.628 -30.769,14.021 -21.04,-19.399 -34.075,-46.952 -36.894,-75.344 z"
         id="path8" />
      <path
         d="m 215.667,261.646 c -3.832,-22.836 15.025,-46.014 38.183,-46.75 22.707,-2.118 44.253,17.926 43.755,40.715 0.71,20.487 -16.286,39.473 -36.662,41.27 -21.391,2.92 -42.808,-13.809 -45.276,-35.235 z m 289.689,-23.239 c 5.277,73.296 -22.146,148.289 -73.795,200.602 -7.058,6.854 -19.4,5.961 -25.866,-1.271 -7.83,-6.643 -7.969,-19.942 -0.341,-26.797 43.082,-44.75 66.379,-107.935 61.745,-169.974 -3.315,-51.54 -25.516,-101.467 -61.073,-138.866 -3.399,-3.326 -6.19,-7.573 -6.43,-12.464 -1.438,-12.251 11.366,-23.582 23.352,-20.938 4.302,0.746 7.886,3.509 10.75,6.669 41.923,43.784 67.669,102.564 71.658,163.039 z"
         id="path10-8" />
      <path
         d="m 433.477,236.592 c 6.108,56.155 -14.591,114.464 -54.717,154.203 -7.094,6.209 -18.691,5.437 -25.065,-1.464 -7.701,-6.292 -8.566,-18.977 -1.584,-26.106 25.083,-25.441 41.011,-59.839 43.617,-95.506 3.593,-43.313 -12.841,-87.567 -43.359,-118.407 -7.518,-7.112 -6.661,-20.358 1.336,-26.76 6.512,-6.899 18.423,-7.471 25.322,-0.848 30.582,30.565 50.038,71.898 54.45,114.888 z"
         id="path12" />
      <path
         d="m 362.557,244.892 c 3.519,35.437 -10.05,72.073 -35.715,96.732 -7.028,6.752 -19.123,5.97 -25.626,-1.143 -7.795,-6.457 -8.319,-19.399 -1.015,-26.42 14.27,-13.899 23.287,-33.152 24.374,-53.087 1.612,-22.624 -7.323,-45.515 -23.223,-61.58 -4.44,-3.952 -7.167,-9.819 -6.458,-15.826 0.978,-13.946 19.594,-23.627 30.768,-14.02 21.04,19.401 34.075,46.953 36.895,75.344 z"
         id="path14" />
    </g>
  </g>
</svg>
